<?xml version="1.0" standalone="no"?>
<!DOCTYPE svg PUBLIC "-//W3C//DTD SVG 1.1//EN" "http://www.w3.org/Graphics/SVG/1.1/DTD/svg11.dtd" >
<svg xmlns="http://www.w3.org/2000/svg">
<metadata></metadata>
<defs>
<font id="horseshoesregular" horiz-adv-x="1024" >
<font-face units-per-em="2048" ascent="1638" descent="-410" />
<missing-glyph horiz-adv-x="1116" />
<glyph horiz-adv-x="0" />
<glyph horiz-adv-x="682" />
<glyph unicode=" "  horiz-adv-x="1116" />
<glyph unicode="&#x09;" horiz-adv-x="1116" />
<glyph unicode="&#xa0;" horiz-adv-x="1116" />
<glyph unicode="!" horiz-adv-x="538" d="M143 -86q0 57 42 98t100 41q60 0 99.5 -40t39.5 -99q0 -62 -42 -101.5t-97 -39.5q-57 0 -99.5 43.5t-42.5 97.5zM182 1462q0 154 146 154q43 0 74 -18t45 -46t20 -52t6 -46q0 -171 -35 -342q-114 -516 -114 -932l-93 -41q13 168 13 328q0 287 -29 633z" />
<glyph unicode="&#x22;" horiz-adv-x="419" d="M59 1550l115 31l6 -315l-104 -29zM252 1575l121 -10l-13 -332l-88 27z" />
<glyph unicode="#" horiz-adv-x="1337" d="M137 410l4 116h189l67 348h-258l13 121h274l86 432h121l-86 -430l297 -2l110 504h127l-108 -504h272l-12 -121h-287l-69 -348h243l-10 -116h-262l-86 -410h-125l90 410l-307 2l-96 -465l-121 -2l100 465h-166zM449 528l303 -2l69 348l-303 3z" />
<glyph unicode="$" horiz-adv-x="800" d="M43 244q0 63 34 106t93 43q54 0 85.5 -34.5t31.5 -88.5q0 -116 -127 -116q23 -39 71 -72t103 -37l26 594q-115 98 -217 256q-69 109 -69 248q0 320 313 391l2 119l88 -4l-4 -111q108 -8 191.5 -79t83.5 -165q0 -53 -31.5 -90t-85.5 -37q-50 0 -82.5 33.5t-32.5 79.5 q0 97 109 119q-48 60 -152 57l-16 -639q14 -9 46.5 -29.5t46.5 -29.5t38.5 -26t37.5 -29t28.5 -28t25.5 -32q76 -116 76 -252q0 -335 -338 -407l-12 -240l-87 8l11 230q-115 9 -195 75q-92 74 -92 187zM205 1235q0 -80 24 -139q3 -5 16 -30t19 -36t18.5 -33.5t21.5 -35.5 t21 -29.5t23.5 -27.5t22.5 -17l14 565q-54 -5 -92.5 -28.5t-56 -58t-24.5 -65.5t-7 -65zM424 53q190 66 190 244q0 43 -13 83t-40.5 78.5t-50.5 64.5t-64 67z" />
<glyph unicode="%" horiz-adv-x="1529" d="M84 1108q0 76 14 148.5t44 141.5t87.5 111.5t135.5 42.5q105 0 171 -111t66 -280q0 -215 -75 -331t-205 -113q-103 1 -170.5 116.5t-67.5 274.5zM225 -147l965 1724l90 -27l-967 -1722zM233 1065q0 -64 13 -170q17 -118 78 -125q16 0 28 8.5t18.5 17.5t18.5 29 q23 38 38 117t15 168q0 8 0.5 73t0 88.5t-5 66.5t-13.5 71q-5 18 -8 26.5t-10.5 21t-20 17.5t-29.5 5q-35 0 -60.5 -37.5t-38.5 -101.5t-18.5 -131.5t-5.5 -143.5zM928 315q0 91 29 179t84.5 148t121.5 60q85 0 148 -63t94 -161.5t31 -215.5q0 -174 -69 -273.5t-163 -99.5 q-61 0 -109.5 26.5t-79 68.5t-51 99t-28.5 114.5t-8 117.5zM1081 264q0 -56 19 -143t43 -123q10 -16 15.5 -23.5t18 -15.5t27.5 -8q37 0 66 63q28 69 28 222q0 83 -15 184.5t-42 148.5q-31 56 -70 56q-16 0 -26 -10t-20 -33.5t-13 -28.5q-36 -71 -31 -289z" />
<glyph unicode="&#x26;" horiz-adv-x="1126" d="M45 389q0 197 72 320q78 134 209 229q-72 209 -72 332q0 146 80 241q45 55 97.5 80t129.5 25q125 0 195.5 -75t70.5 -177q0 -107 -77.5 -199.5t-217.5 -183.5q16 -43 45.5 -128.5t54 -152.5t48.5 -125q62 -148 108 -223q28 88 54 256q15 98 20 223q0 28 -36.5 46.5 t-88.5 17.5v68l363 -62v-67q-23 0 -51 8t-43 8q-27 0 -45 -68q-30 -101 -39 -151q-34 -215 -82 -398q65 -114 131 -114q76 0 76 98q0 41 -11.5 68t-34.5 55h66q43 -46 43 -123q0 -59 -26.5 -128.5t-79.5 -98.5q-32 -13 -82 -13q-30 0 -123 41q-15 8 -31.5 34.5t-19.5 29.5 q-34 -50 -85.5 -97t-101.5 -69q-50 -20 -125 -20q-140 0 -282 167q-56 69 -82.5 146t-26.5 180zM268 645q0 -115 19 -217q5 -28 51 -195q12 -50 51 -108q72 -109 164 -109q15 1 43 18.5t39 31.5q25 32 55 86q-194 327 -323 694q-22 -17 -34 -31.5t-24 -42.5 q-41 -80 -41 -127zM459 1372q3 -141 47 -303q111 87 149 133q73 93 76 172q0 34 -49 119q-19 26 -46.5 35.5t-70.5 9.5q-59 0 -82.5 -44t-23.5 -122z" />
<glyph unicode="'" horiz-adv-x="299" d="M82 1575l127 -10l-12 -312l-95 27z" />
<glyph unicode="(" horiz-adv-x="718" d="M104 625q3 350 111 579q122 259 322 432q12 -10 35.5 -30.5t35.5 -30.5q-168 -177 -231 -356q-96 -271 -96 -588q0 -260 84 -461q103 -245 249 -391l-49 -62q-111 88 -188 194t-156 253q-117 214 -117 461z" />
<glyph unicode=")" horiz-adv-x="694" d="M86 -221q95 99 152 189.5t98 201.5q84 228 84 461q0 336 -96 588q-38 105 -90 180.5t-142 175.5l72 61q184 -160 321 -432q57 -116 84 -272t27 -307q0 -235 -117 -461q-153 -293 -344 -447z" />
<glyph unicode="*" horiz-adv-x="595" d="M49 1243l4 66l140 6l-107 123l49 32l125 -116l82 157l55 -14l-67 -166l231 6v-61l-229 -12l151 -154l-65 -35l-133 146l-84 -170l-60 34l76 166z" />
<glyph unicode="+" horiz-adv-x="1011" d="M86 670l363 6l-7 399l133 12l-4 -409l344 2l-6 -119l-336 -2l-2 -350l-120 -4v348l-363 -2z" />
<glyph unicode="," horiz-adv-x="401" d="M86 -184q51 125 51 219q0 77 -14 180l186 -31q-8 -175 -22 -256q-5 -37 -31.5 -97.5t-69.5 -119.5z" />
<glyph unicode="-" d="M111 719v143l802 -8v-143z" />
<glyph unicode="." horiz-adv-x="378" d="M57 66q0 55 39.5 98t91.5 43q60 0 101 -38t41 -103q0 -48 -41.5 -88.5t-100.5 -40.5q-46 0 -88.5 40.5t-42.5 88.5z" />
<glyph unicode="/" horiz-adv-x="671" d="M35 -188l471 1804l133 -41l-475 -1804z" />
<glyph unicode="0" horiz-adv-x="913" d="M51 780q0 175 49 328q16 50 28.5 84t32 80t38.5 77t47 64.5t57.5 53.5t69 33t84.5 13q119 0 213 -102q36 -48 64.5 -104.5t43 -96t35.5 -104.5q49 -146 49 -326q0 -338 -31 -436q-20 -64 -51.5 -123t-75 -110.5t-101.5 -82t-122 -30.5t-120.5 28.5t-100 78.5t-76.5 111 t-57 134q-76 225 -76 430zM336 752q0 -300 57 -533q33 -131 113 -131q48 0 72.5 34t42.5 97q14 47 14 143q-1 81 -2 174t-1.5 142.5t-0.5 73.5q0 208 -13 321q-30 254 -137 254q-31 0 -55.5 -22t-40 -60t-25 -80.5t-14.5 -91.5q-10 -91 -10 -321z" />
<glyph unicode="1" horiz-adv-x="636" d="M51 70v57l115 -2q27 0 35 8q22 27 22 111l27 909q0 43 -27 74q-14 11 -35 8l-112 -8v59q42 6 88 27.5t78 46.5l145 113h55l-24 -1237q0 -72 20 -105q34 -46 72 -49l76 -4v-60z" />
<glyph unicode="2" horiz-adv-x="819" d="M51 27v100q46 171 68 217q72 143 155 256q26 34 80 101t91.5 116t52.5 72q57 114 57 233q0 112 -53.5 171t-159.5 59q-66 0 -111.5 -40t-52.5 -114q24 12 45 12q43 0 74 -30t31 -78q0 -47 -30 -81t-79 -34q-125 0 -125 164q0 121 92.5 200t219.5 79q161 0 262.5 -86 t101.5 -252q0 -37 -31.5 -95t-69.5 -109.5t-104.5 -127t-102.5 -113t-97 -100.5q-15 -16 -37.5 -39t-34 -35.5t-25 -29t-22.5 -31.5q-51 -119 -62 -148q53 -6 160.5 -27.5t126.5 -21.5q26 0 39.5 1.5t34 9t32.5 22t25 43.5t23 71h55l-21 -362z" />
<glyph unicode="3" horiz-adv-x="800" d="M51 199q0 125 103 125q102 0 102 -99q0 -98 -113 -98q77 -88 152 -88q31 0 79 31t81 80q34 46 34 204q0 310 -153 310q-10 0 -26.5 -5.5t-26.5 -5.5q-41 0 -41 39q0 37 39 37q10 0 34.5 -5t36.5 -5q74 0 119 80q68 124 68 288q0 293 -181 293q-125 0 -155 -114q24 4 39 4 q98 0 98 -107q0 -39 -24.5 -71.5t-73.5 -32.5q-60 0 -89.5 43.5t-29.5 105.5q0 57 20.5 98t65.5 80q78 64 192 64q72 0 133.5 -21.5t110.5 -65t77 -116t28 -166.5q0 -71 -32 -155.5t-73 -126.5q-46 -48 -97.5 -72.5t-144.5 -38.5q149 -36 220 -124t71 -216q0 -155 -86 -237 q-67 -62 -130.5 -98t-137.5 -36q-112 0 -188 66q-50 44 -75.5 80.5t-25.5 75.5z" />
<glyph unicode="4" horiz-adv-x="761" d="M51 379v106l408 967h119v-913l131 24v-84l-131 -24v-273q0 -46 26 -76q23 -28 38.5 -36.5t39.5 -12.5v-57l-418 23v59q67 14 81 22q32 20 32 86v240zM168 489l209 25v260q0 57 4 131q1 19 8 80t8 96z" />
<glyph unicode="5" horiz-adv-x="784" d="M41 1389h80q6 0 45.5 -3.5t79.5 -3.5q237 0 352 43q-2 -24 -6 -100q-19 -84 -137 -104q-67 -13 -187 -13q-15 0 -48 -14.5t-48 -15.5q-17 0 -29 2l37 -334q104 78 211 78q161 0 258 -133q50 -67 72 -129q12 -47 12 -144q0 -264 -92 -383q-8 -11 -27 -36t-34 -43t-33 -36 q-56 -43 -127 -43q-84 0 -156 31.5t-119 98t-47 155.5q0 60 34 105t97 45q49 0 83 -34.5t34 -88.5q0 -55 -29 -84t-100 -29q21 -121 145 -121q55 0 72 27q16 16 47 84q72 166 72 330q0 75 -29 149q-32 53 -53 96q-39 84 -137 84q-103 0 -156 -82q-8 -137 -67 -137 q-39 0 -39 41q0 53 32 103z" />
<glyph unicode="6" horiz-adv-x="759" d="M51 909q0 252 58 361q111 200 299 200q81 0 145.5 -48t64.5 -136q0 -55 -30 -90q-4 -3 -22.5 -19.5t-33 -27t-22.5 -10.5q-24 0 -82 53q-31 31 -31 78q0 41 23 68.5t69 50.5q-29 26 -67 26q-102 0 -150 -125q-20 -52 -20 -170q0 -207 41 -360q84 84 172 84 q133 0 199 -139q49 -106 49 -259q-2 -122 -14.5 -198t-47.5 -129q-80 -123 -248 -123q-73 0 -138 39t-107 117q-56 98 -90 436q-17 152 -17 321zM281 424q0 -106 53 -283q15 -57 88 -57q65 0 80 37q24 66 24 227q0 203 -45 340q-21 62 -73 62q-28 0 -66 -25q-8 -8 -55 -94 q-2 -66 -3.5 -114.5t-2 -65.5t-0.5 -27z" />
<glyph unicode="7" horiz-adv-x="759" d="M51 1104l43 371l615 -76v-78q-78 -168 -115 -254q-71 -167 -94 -260q-54 -221 -54 -496q0 -13 2.5 -89t2.5 -89q0 -168 -127 -168q-109 0 -109 154q0 24 8.5 65t18 74.5t26 89t23.5 80.5l96 340q74 260 205 479q-297 51 -318 51q-54 -2 -102 -55q-45 -63 -63 -139h-58z " />
<glyph unicode="8" horiz-adv-x="755" d="M51 272q0 56 14.5 119t43.5 105q26 39 44.5 64t51 59.5t67.5 62.5q-66 58 -122 186q-41 99 -41 244t79 252q86 111 230 111q125 0 201.5 -81t72.5 -220q-1 -56 -4.5 -89.5t-14 -71t-30.5 -68t-52.5 -66t-82.5 -78.5q55 -47 89 -86t62 -92q46 -82 46 -279q0 -152 -99 -262 q-96 -107 -254 -107q-136 0 -218.5 82.5t-82.5 214.5zM178 293q0 -100 43 -174q21 -35 61 -59.5t93 -24.5q87 0 138.5 60.5t51.5 133.5q0 164 -57 246q-22 33 -76.5 82.5t-114.5 89.5q-54 -34 -100 -137q-39 -96 -39 -217zM242 1214q0 -73 9.5 -123t39.5 -100 q30 -47 68 -80.5t104 -76.5q28 28 48 58.5t31 53.5t18 59.5t9 53.5t5 59l4 56q0 39 -2.5 68.5t-12.5 63.5t-27.5 56.5t-49 37.5t-74.5 15q-63 0 -102.5 -30t-53.5 -72.5t-14 -98.5z" />
<glyph unicode="9" horiz-adv-x="784" d="M51 1014q-2 90 8.5 150.5t49.5 144.5q75 159 235 159q96 0 143 -12q64 -23 109 -90q120 -190 133 -457q4 -114 4 -149q0 -409 -69 -539q-110 -207 -293 -207q-95 0 -158 53.5t-63 129.5q0 62 31.5 95.5t74.5 33.5q57 0 88 -34t31 -75q0 -40 -19.5 -68.5t-68.5 -50.5 q24 -24 67 -24q51 0 88.5 34.5t57.5 90.5q12 32 16 219q1 56 -0.5 158t-1.5 126q-44 -42 -81.5 -63t-84.5 -21q-286 0 -297 396zM260 1178q0 -240 59 -404q22 -59 76 -59q45 0 66 24q12 11 19.5 40t8.5 30q0 133 -2 207q-8 150 -20 225q-6 32 -12.5 55t-19 51.5t-33 44 t-48.5 15.5q-41 0 -67.5 -54.5t-26.5 -174.5z" />
<glyph unicode=":" horiz-adv-x="401" d="M51 217q0 53 36.5 90t80.5 37q54 0 90.5 -34.5t36.5 -92.5q0 -40 -36.5 -77.5t-90.5 -37.5q-39 0 -78 35.5t-39 79.5zM78 963q0 56 39.5 97.5t89.5 41.5q60 0 100.5 -37t40.5 -102q0 -47 -41.5 -89.5t-99.5 -42.5q-45 0 -87 42.5t-42 89.5z" />
<glyph unicode=";" horiz-adv-x="401" d="M66 -199q38 83 51.5 148.5t15.5 144.5q0 60 -10 135l219 -26q-11 -166 -43 -262q-17 -50 -26.5 -73.5t-35.5 -67.5t-63 -89zM78 965q0 57 39 98t92 41q59 0 100 -37.5t41 -101.5q0 -48 -41.5 -91t-99.5 -43q-46 0 -88.5 42.5t-42.5 91.5z" />
<glyph unicode="&#x3c;" horiz-adv-x="1052" d="M90 649v82l832 393l39 -116l-682 -314l669 -360l-41 -105z" />
<glyph unicode="=" horiz-adv-x="1126" d="M162 416v133l823 29v-175zM162 795v151l823 -12v-152z" />
<glyph unicode="&#x3e;" horiz-adv-x="1052" d="M90 1008l39 116l832 -393v-82l-818 -420l-41 105l670 360z" />
<glyph unicode="?" horiz-adv-x="794" d="M39 1354q0 136 78 198q39 31 116.5 57.5t143.5 26.5q134 0 264 -120q45 -40 66.5 -86.5t21.5 -112.5q0 -108 -70 -209q-19 -26 -64.5 -61.5t-98 -77t-82.5 -78.5q-76 -95 -107 -148q-16 -27 -16 -106q0 -109 20 -242q2 -15 11 -61.5t12 -71.5l-94 -41 q-39 230 -51.5 319.5t-12.5 151.5q0 54 10 72q73 124 123 217q45 81 150 197q90 102 90 143q0 75 -51 149q-25 37 -68 64t-72 27q-27 0 -80.5 -14t-62.5 -21q-29 -20 -61 -82q133 -4 133 -115q0 -48 -32 -82.5t-91 -34.5q-125 0 -125 142zM188 -43q0 58 41 98.5t103 40.5 t101.5 -40.5t39.5 -98.5q0 -63 -42 -103t-99 -40q-64 0 -104 43.5t-40 99.5z" />
<glyph unicode="@" horiz-adv-x="1564" d="M80 547q0 335 272 561q108 90 243 136t277 46q300 0 451 -131q190 -169 190 -428q0 -60 -0.5 -88.5t-6.5 -75t-19 -75.5q-49 -114 -158 -213q-39 -34 -125 -68q-16 -6 -53 -6q-3 0 -26 2t-27 2q-165 0 -174 166q-101 -164 -226 -164q-136 0 -200 113q-31 54 -43.5 104.5 t-12.5 132.5q0 60 25 150q28 89 70 131q111 108 249 108q46 0 104 -21t75 -38q49 -46 59 -113l41 137l111 -36q-53 -223 -93 -385q-12 -50 -12 -52q0 -84 68 -84q85 0 125 68q26 48 51 133q10 34 10 195q0 56 -20 131q-23 88 -56 116q-92 80 -159 113q-92 45 -207 45 q-145 0 -226 -33q-339 -143 -411 -340q-49 -134 -49 -268q0 -272 184 -432q90 -78 209.5 -115t243.5 -37q151 0 255.5 40t231.5 128q8 -6 24.5 -19.5t24.5 -19.5q-242 -180 -536 -180q-144 0 -276 36.5t-228 109.5q-250 193 -250 518zM567 530q0 -111 54 -186q30 -41 75 -41 q7 0 14 2t11.5 3.5t12.5 6t11 6.5t12.5 8.5t12.5 8.5q18 16 41.5 48t32.5 50q14 32 22 66q17 57 19 69q6 35 6 105q0 71 -45 162q-33 41 -80 41q-41 0 -76 -37q-82 -86 -115 -242q-8 -31 -8 -70z" />
<glyph unicode="A" horiz-adv-x="985" d="M51 76v55q74 5 113 166l285 1196h118l260 -1288q27 -137 107 -142v-55h-395v55q75 3 75 62q0 45 -6 68l-67 268l-250 -23l-60 -159q-6 -10 -6 -54q0 -40 25.5 -65.5t75.5 -28.5v-55h-275zM309 516l217 23l-96 542z" />
<glyph unicode="B" horiz-adv-x="911" d="M45 1384v89q64 -4 186.5 -13.5t182.5 -13.5q190 -11 288 -72q119 -73 119 -254q0 -265 -325 -329q191 -29 277.5 -126.5t86.5 -234.5q0 -212 -102 -307q-52 -47 -125.5 -69.5t-179.5 -28.5q-32 -2 -149.5 -12t-180.5 -13v86q43 6 61 28q16 18 15 52v12q-42 675 -76 1112 q-3 52 -15.5 70t-62.5 24zM330 760q3 -84 7 -180.5t9 -214.5t8 -183q3 -96 72 -96q149 0 149 320q0 177 -38 245q-31 52 -77 80.5t-130 28.5zM330 819h18q201 0 201 273q0 138 -19 196q-35 96 -143 96q-57 0 -57 -67v-498z" />
<glyph unicode="C" horiz-adv-x="839" d="M51 670q0 265 135 508q111 194 283 194q75 0 141 -55h33l-18 129h108l55 -508h-94q-93 373 -211 373q-83 0 -116 -142q-84 -348 -84 -501q0 -107 1.5 -165t11 -142t28.5 -144q19 -56 63 -100q48 -51 102 -51q92 0 144 88q26 42 26 79v134h66q0 -152 -4 -183 q-9 -54 -47 -98q-68 -102 -230 -102q-194 0 -313 198q-80 137 -80 488z" />
<glyph unicode="D" horiz-adv-x="937" d="M47 1315v110l287 -24q327 -28 428 -115q7 -6 14.5 -14t14.5 -19.5t13 -20.5t13.5 -25t11.5 -25t11.5 -28t10.5 -26.5l11 -27.5l10 -25q15 -56 15 -151q0 -198 -45 -420q-13 -66 -23.5 -110t-32.5 -101.5t-47 -89.5q-124 -150 -381 -174l-237 -25v86q49 6 65 30 q13 20 13 50v12l-76 1037q-4 42 -19 66.5t-57 29.5zM352 1212l27 -972q0 -45 14 -80q13 -21 56 -21q63 0 81 4q44 14 56 90q17 107 51 840q1 20 1 37q0 53 -9 86q-16 53 -79.5 86t-121.5 33q-76 0 -76 -91v-12z" />
<glyph unicode="E" horiz-adv-x="837" d="M51 29v82q75 12 78 92l23 1083q0 40 -15 63.5t-63 30.5v60l708 22l4 -340h-61q-16 84 -43 115l-55 66q-63 77 -170 77q-48 0 -60.5 -18t-15.5 -76l-23 -493q74 10 117 65q8 11 49 39q30 21 33 64h61l-22 -429h-61q-1 15 -3 25t-8.5 22.5t-9.5 17.5t-16.5 24.5t-18.5 27.5 q-28 38 -55.5 55.5t-65.5 22.5v-532q0 -44 19.5 -64t50.5 -20q102 0 172 92q7 8 19.5 24t23.5 29.5t21 26.5q30 47 51 127h57l-6 -359z" />
<glyph unicode="F" horiz-adv-x="845" d="M49 1319v55l699 51l47 -415h-52q-26 86 -67 141q-46 61 -107 113q-64 55 -143 55q-42 0 -53 -16q-19 -16 -19 -80v-459q70 8 115 65q4 6 49 37q16 9 23.5 21.5t13.5 40.5h57l-49 -416h-57q-4 67 -31 109q-42 64 -121 79v-540q0 -48 22 -69.5t64 -24.5v-58l-354 -22v55 q90 50 88 119q-19 423 -28 625t-15 321t-7.5 138.5t-4.5 25.5q-16 45 -70 49z" />
<glyph unicode="G" horiz-adv-x="884" d="M51 684q0 350 94 508q121 199 318 199q51 0 121 -54l84 -24l28 180l86 -27l-47 -508h-67q-91 373 -215 373q-106 0 -134 -268q-14 -125 -14 -371q0 -314 53 -506q25 -94 101 -94q59 0 86 58q30 59 30 133q0 68 -26 266q-5 45 -11 58.5t-28 13.5q-11 0 -27.5 -2.5 t-29.5 -2.5v89l383 26v-88q-61 -10 -74 -27q-14 -24 -14 -56v-11l24 -565h-80l-45 116q-94 -73 -201 -73q-170 0 -272 176q-123 218 -123 481z" />
<glyph unicode="H" horiz-adv-x="985" d="M51 1421v60l381 24v-59q-5 -1 -10.5 -4.5t-12 -9.5t-11 -11t-12.5 -13l-11 -11q-19 -25 -19 -63v-11l27 -520l248 -25l-27 471q-4 53 -14 68q-6 4 -19 4q-4 0 -15.5 -1t-25.5 -1v61l404 25v-62q-72 -10 -72 -94l-24 -1190v-6q0 -73 71 -84v-59l-354 -25v60q4 1 8 2.5 t8.5 5t7.5 5.5t8.5 7.5l8 8t9.5 10t9 10.5q17 17 17 65v639l-248 25l49 -510q3 -50 19 -70q4 -4 14 -4q2 0 6.5 1t14 2t24.5 1v-61l-385 -25v62q45 7 63 29q15 19 15 53v12l-76 1110q-3 63 -23 78q-18 14 -53 20z" />
<glyph unicode="I" horiz-adv-x="542" d="M51 1319v61l381 25v-62q-15 -3 -34 -20.5t-25 -28.5q-17 -26 -17 -69l52 -1063q3 -51 16 -70.5t57 -46.5v-59l-381 22v62q48 6 64 29q15 21 14 55v8l-51 1063q-5 85 -76 94z" />
<glyph unicode="J" horiz-adv-x="753" d="M51 197q0 141 133 141q115 0 115 -115q0 -45 -30 -77.5t-85 -32.5q-14 0 -32 6l-5 -6q43 -62 123 -62q37 0 99 38.5t77 68.5q35 70 35 155q0 30 -12.5 187.5t-35.5 433t-30 364.5q-4 57 -22 72q-4 2 -12 2q-6 0 -29 -6t-37 -6v84l399 26v-84q-44 -1 -58.5 -22t-12.5 -61 q7 -133 20.5 -371.5t23 -407.5t9.5 -192q0 -133 -53 -207q-3 -4 -17.5 -24t-21.5 -28.5t-20 -23.5t-25 -24t-25 -15q-129 -55 -207 -55q-96 0 -213 88q-51 43 -51 154z" />
<glyph unicode="K" horiz-adv-x="978" d="M51 1413v62l406 26v-61q-17 0 -58 -51q-18 -20 -18 -70l-25 -617l301 504q17 28 17 60q0 43 -96 47v59l321 -24l-2 -60q-24 4 -51 4t-41 -2q-27 -16 -62 -76l-172 -307l258 -651q6 -16 19 -44.5t18 -43.5q12 -6 17 -6t17 2t28 2v-64l-389 -51v58q6 2 14.5 8.5t23 20 t17.5 16.5q12 18 12 41q0 28 -10 61l-129 496l-111 -201v-422q0 -58 11 -80q13 -31 63 -39v-59l-330 26v60q76 6 76 86v6l-51 1190q-1 25 -5.5 42t-22 33t-46.5 19z" />
<glyph unicode="L" horiz-adv-x="808" d="M51 1380v60l404 24l-2 -59q-20 -2 -74 -51q-21 -18 -21 -72l23 -1089q3 -84 70 -84q95 0 143 71q32 49 108 236h56l-23 -389l-639 22v60q78 13 78 88v6l-45 1079q-4 86 -78 98z" />
<glyph unicode="M" horiz-adv-x="1064" d="M51 1319v59l348 25l133 -428l146 530l336 -24v-88q-1 0 -5 0.5t-10.5 1t-11.5 0.5q-19 0 -37 -2q-7 -12 -12.5 -39t-5.5 -41l-25 -1139v-7q0 -94 82 -101v-60h-383v60q63 7 86 40q21 38 21 95l24 1233l-182 -758h-84l-231 600l77 -1151q8 -107 23 -119q30 -34 78 -41v-59 h-293v61q84 13 84 126v5v4q0 16 -11.5 192.5t-31.5 473.5t-31 467q0 1 -0.5 7.5t-0.5 8.5t-1 8.5t-1.5 9t-2 8t-3.5 8t-4.5 6.5t-5.5 6t-7 4.5t-9 3.5q-18 7 -49 14z" />
<glyph unicode="N" horiz-adv-x="913" d="M49 31v57q62 5 88 53q15 39 15 109l22 950q0 46 -22 66q-36 4 -56 4q-14 0 -28 -2v59l313 23l324 -842l-23 737q0 76 -16 107q-18 42 -86 51v59l282 -22v-60q-76 -6 -82 -18q-22 -30 -22 -92q0 -41 67 -1305h-100l-430 1104l-23 -844q-1 -23 0.5 -41t7.5 -39t17 -36 t31.5 -27t48.5 -16v-58z" />
<glyph unicode="O" horiz-adv-x="913" d="M51 760q0 172 49 325q79 230 144 306q91 102 213 102q118 0 213 -102q65 -72 143 -304q49 -155 49 -327q0 -195 -76 -430q-82 -251 -241 -326q-66 -27 -113 -27q-127 0 -229 117q-73 85 -121 236q-16 50 -23.5 180.5t-7.5 249.5zM279 322q0 -64 14 -123q13 -60 42 -95.5 t73 -35.5q47 0 71.5 36.5t40.5 94.5q58 227 58 532q0 223 -11 322q-27 254 -135 254q-110 0 -137 -254q-8 -78 -8 -322q0 -81 -4 -242t-4 -167z" />
<glyph unicode="P" horiz-adv-x="890" d="M49 1360v61l354 52q18 2 60 2q166 0 271.5 -106t105.5 -273q0 -166 -121 -269q-106 -88 -283 -88h-55l47 -585q7 -89 86 -97v-57h-326v57q88 17 88 82q0 11 -25.5 204.5t-67.5 502t-60 444.5q-4 32 -17 68q-6 4 -14 4q-9 0 -19 -1t-24 -1zM354 1300l25 -497h22 q94 0 138 63q69 98 69 238q0 103 -63 211q-23 39 -52.5 54t-70.5 15q-38 0 -54 -22q-14 -19 -14 -53v-9z" />
<glyph unicode="Q" horiz-adv-x="931" d="M51 911q0 209 43 334q33 101 121 172q38 30 127 70q41 20 141 20q175 0 267 -153q45 -78 88 -224q16 -50 27 -145t13.5 -150t2.5 -73q0 -183 -43 -311q-24 -77 -160 -213q18 -81 51 -191q25 -33 49 -33q37 0 37 68v115h47q2 -33 2 -74q0 -227 -147 -227q-143 0 -164 247 q-43 -22 -94 -22q-125 0 -217 102q-49 52 -113 252q-35 102 -56.5 228t-21.5 208zM309 774q0 -246 19 -389q58 86 137 86q71 0 123 -76q10 64 14 144q2 27 6.5 83t7 100t2.5 91q1 59 7 212.5t6 195.5q0 71 -6 98q-27 102 -117 102q-115 0 -139 -102q-60 -237 -60 -545z M356 293q0 -45 29.5 -78t73.5 -33q96 0 96 109q0 121 -98 121q-101 0 -101 -119z" />
<glyph unicode="R" horiz-adv-x="976" d="M51 29v59q40 3 64 28.5t24 63.5l23 1104v6q0 80 -80 88v60l334 -23q188 -11 282 -65q129 -73 129 -244q0 -237 -327 -297q142 -32 205 -123q50 -75 71 -233q8 -74 8 -154q5 -119 39 -119q29 0 43 39q23 57 23 184q0 30 -4 54l45 -4q4 -20 4 -62q0 -68 -8 -120.5t-28 -99 t-58.5 -72t-94.5 -25.5q-107 0 -161 100q-43 78 -43 293q0 201 -43 268q-38 58 -156 58l23 -613q2 -41 21 -64.5t65 -27.5v-59h-400zM319 803h21q110 0 156 59q67 87 67 201q0 96 -55 188q-37 58 -115 58q-74 0 -74 -78v-428z" />
<glyph unicode="S" horiz-adv-x="759" d="M51 4l23 477l78 -4q11 -58 23 -104t36 -104t53 -96.5t75 -65.5t101 -27q38 0 65 13.5t39.5 30.5t19.5 41.5t8 36.5t1 27q0 86 -67 187q-30 45 -135 159q-7 8 -31.5 34t-35 38t-32 35.5t-33.5 38t-28 34t-26.5 35t-18.5 29.5q-6 10 -11.5 23.5t-9 22t-8.5 27.5t-6.5 25.5 t-7 31t-6.5 28.5q-15 111 -15 166q0 20 4 50.5t23 85t51 95.5q38 48 84 74.5t121 26.5q37 0 111 -32t79 -32q19 0 19 16v43q0 25 4 35l113 -2l-23 -379l-74 4q-5 49 -28 101q-12 17 -33.5 45t-26.5 35q-32 52 -68 77t-87 25q-123 0 -123 -137q0 -102 76 -236 q66 -118 159 -215q124 -127 174 -217q64 -111 64 -246q0 -149 -84 -254q-78 -94 -203 -94q-48 0 -134 37.5t-97 38.5q-23 0 -41 -10q-2 -8 -12 -32.5t-13 -43.5z" />
<glyph unicode="T" horiz-adv-x="874" d="M51 1008l37 444l735 -78l-16 -467h-55q-19 123 -53 225t-81 123l-61 15l25 -1106q0 -66 16 -86q19 -35 74 -39v-80l-436 27v77q16 0 35 -1t24 -1q34 0 41 7q16 25 16 96l-24 1132q-23 -9 -39.5 -17.5t-38.5 -30t-39 -52.5q-6 -12 -19 -35.5t-16.5 -30t-12 -23 t-10.5 -23.5t-7 -20.5t-7.5 -26t-5.5 -29.5h-82z" />
<glyph unicode="U" horiz-adv-x="976" d="M51 1358v59l398 45v-59q-21 0 -66 -45q-16 -23 -16 -72v-948q0 -135 22 -186q39 -89 148 -89q112 0 155 89q31 64 31 190l22 788q1 10 1 20q0 63 -23 97q-40 56 -78 64v59l281 -45v-59q-40 0 -78 -19q-18 -26 -23 -117l-22 -776q0 -26 -2.5 -60.5t-22 -104t-53.5 -111.5 q-78 -92 -260 -92q-178 0 -253 83.5t-75 260.5v956q0 70 -47 84q-13 -5 -39 -12z" />
<glyph unicode="V" horiz-adv-x="933" d="M51 1212v62l375 49v-61q-70 0 -70 -50q0 -29 4 -47l129 -714l189 782l5 20l5 20t2 11q0 37 -23.5 55t-68.5 25v59l285 -51v-57q-74 -14 -103 -133l-297 -1176l-121 -22l-202 1116q-10 50 -31 86q-13 16 -78 26z" />
<glyph unicode="W" horiz-adv-x="1124" d="M51 1327v59l287 50v-60q-72 -8 -72 -65l99 -848l155 579l-12 74q-6 40 -26.5 59t-63.5 27v55h323v-55q-69 -6 -69 -59q0 -11 2 -21q-1 -5 -17 -67l156 -652l51 902q0 7 2 27t2 24q0 116 -102 123v57l307 -25v-57q-82 -20 -90 -147l-102 -1336h-154l-158 891l-221 -817 h-72l-149 1165q-12 98 -76 117z" />
<glyph unicode="X" horiz-adv-x="960" d="M51 1323l404 51v-59q-18 -1 -28.5 -3.5t-20 -10.5t-9.5 -23q0 -14 13 -49l110 -293l133 364q15 45 15 54q0 37 -9 55q-8 14 -24.5 20t-52.5 13v57l295 -24v-58h-7q-96 0 -139 -114l-174 -463l215 -566q45 -124 78 -124q6 0 22.5 6t36.5 6v-56l-407 -51v58q65 3 65 49 q0 21 -16 61l-127 334l-96 -395l-8 -32t-9 -34.5t-4 -15.5q0 -22 21 -47q7 -4 28.5 -22t28.5 -23v-56l-309 25v53q137 12 178 164l131 481l-201 539q-12 33 -42 50.5t-89 21.5z" />
<glyph unicode="Y" horiz-adv-x="985" d="M51 1292v58l418 24l-2 -55q-82 -4 -82 -57q0 -13 10 -58l172 -522l172 551q9 36 9 57q0 103 -91 103v59l277 -27v-57q-80 -9 -125 -149l-201 -654v-456q0 -87 90 -93v-57h-411v57q37 3 61 19q25 13 29 74l26 473l-247 641q-19 48 -37 73q-14 2 -35 2q-24 0 -33 -6z" />
<glyph unicode="Z" horiz-adv-x="839" d="M51 27l447 1284q-16 2 -45 2q-132 0 -201 -74q-105 -112 -137 -258h-56l37 389l654 127v-47l-519 -1333q14 -4 48 -4q149 0 278 100.5t166 263.5h65l-75 -422l-662 -100v72z" />
<glyph unicode="[" horiz-adv-x="630" d="M133 1614l479 20v-104l-303 -21l21 -1640l282 20v-104l-458 -41z" />
<glyph unicode="\" horiz-adv-x="671" d="M20 1575l134 41l471 -1804l-129 -41z" />
<glyph unicode="]" horiz-adv-x="630" d="M16 -152l324 41l-41 1620l-283 21v104l459 -20v-1809l-459 -41v84z" />
<glyph unicode="^" horiz-adv-x="1261" d="M215 1204l365 402l129 4l329 -402l-155 -41l-236 285l-274 -285z" />
<glyph unicode="_" d="M0 -207h1024v-158h-1024v158z" />
<glyph unicode="`" horiz-adv-x="542" d="M94 1538l96 80l230 -248l-144 -156z" />
<glyph unicode="a" horiz-adv-x="995" d="M51 14v56q28 0 48 13t33 39t19 46.5t13 52.5l260 1237h119l280 -1216q29 -135 115 -140l6 -57l-409 -18v57q73 6 73 59q0 44 -6 68l-63 215l-250 14l-51 -235q-7 -29 -7 -55q0 -47 24 -68.5t73 -26.5v-55zM307 518l215 -16l-114 545z" />
<glyph unicode="b" horiz-adv-x="886" d="M51 1430l371 -3q71 0 156.5 -14.5t132.5 -40.5q118 -102 118 -272q0 -264 -325 -328q171 -30 251.5 -108t80.5 -205q0 -28 -5.5 -66.5t-19.5 -93.5t-46.5 -109.5t-78.5 -91.5q-67 -56 -155.5 -80t-161.5 -24q-124 0 -275 20v84q79 0 76 60l-41 1112q-1 26 -2.5 38t-9 26 t-22.5 21.5t-42 12.5zM326 162v-7q0 -30 16 -58q18 -31 55 -31q70 0 111 94q26 58 40.5 171.5t14.5 178.5q0 55 -4 78t-16 45q-56 106 -199 106zM344 799h21q190 0 190 272q0 150 -16 197q-32 96 -125 96q-60 0 -60 -68z" />
<glyph unicode="c" horiz-adv-x="800" d="M51 670q0 291 96 483q61 123 141 171t177 48q81 0 149 -55l31 -8l8 137l99 -14l-47 -494h-95q-3 373 -123 373q-34 0 -79.5 -37.5t-79.5 -128.5q-24 -104 -34.5 -258t-10.5 -219q0 -321 69 -451q19 -51 56.5 -93t87.5 -56q87 0 141 88q12 19 21.5 49.5t9.5 50.5 q0 51 -13 98l68 15q12 -60 12 -107q0 -92 -57 -174q-70 -104 -207 -104q-191 0 -313 198q-51 82 -79 236t-28 252z" />
<glyph unicode="d" horiz-adv-x="917" d="M47 1264v90q179 14 289 14q30 0 91 -6.5t155.5 -33.5t140.5 -68q63 -54 98 -134q25 -56 35 -107.5t10 -135.5q0 -25 -14 -207q-28 -405 -119 -522q-41 -52 -102.5 -89t-128 -55t-122.5 -25.5t-108 -7.5q-27 0 -70.5 3.5t-86.5 3.5v84q43 0 62.5 17t17.5 50l-68 1051 q-2 33 -17.5 51.5t-62.5 26.5zM305 1161l23 -919q0 -50 10 -70q13 -31 59 -31q91 0 101 2q31 12 48 66.5t19 105.5l25 762q1 13 1 26q0 54 -11 93q-7 23 -27.5 39t-35.5 20.5t-21 4.5q-58 6 -115 6h-3q-38 0 -56 -27q-17 -25 -17 -68v-10z" />
<glyph unicode="e" horiz-adv-x="815" d="M51 1395v61l713 -22l-19 -322h-61q-9 70 -20 102q-47 68 -54 76q-69 76 -161 76q-47 0 -59.5 -17.5t-14.5 -74.5l-17 -481q25 3 48.5 20.5t37.5 34t37 48.5q5 7 8 11q23 46 25 70h59l15 -430h-62q0 38 -20 67q-12 17 -38 46t-36 36q-43 26 -78 31l-20 -526q-3 -74 88 -74 q48 0 81.5 17.5t69.5 64.5q4 5 13.5 17t13 17.5t10.5 16t13.5 21.5t13.5 26q16 31 16 90h70l25 -340l-668 -22v84q42 6 60.5 26.5t17.5 63.5l-27 1094q0 86 -80 92z" />
<glyph unicode="f" horiz-adv-x="815" d="M51 18v60q90 12 90 82l-10 1100q-4 29 -8 49q-12 41 -68 49v57l709 -35l-31 -368h-55q-6 47 -27 108q-21 68 -63 129q-70 76 -133 76q-2 0 -9.5 -1t-9.5 -1.5t-9 -1.5t-10 -1.5t-8.5 -1.5t-8.5 -2.5t-7.5 -3t-7 -3.5t-5.5 -4t-5 -5q-15 -19 -15 -77l-18 -459q97 4 147 67 q0 1 10.5 12.5t24.5 34t23 50.5h59l-24 -416h-58q-8 74 -30 111q-51 71 -152 77l-23 -540v-5q0 -78 87 -112v-55z" />
<glyph unicode="g" horiz-adv-x="944" d="M51 780q0 134 15.5 236t60.5 176q122 201 319 201q60 0 132 -39l73 -41l-18 155l100 11l29 -518h-68q-30 184 -89 277t-167 93q-41 0 -71 -39.5t-44.5 -105t-20.5 -125.5t-7 -123q-1 -18 -1 -37.5t1 -41.5q1 -44 3 -77l1 -32q0 -148 15 -304t46 -258q27 -96 97 -96 q64 0 90 60q34 72 41 172l12 225q-11 87 -20 94q-20 4 -45 4q-17 0 -29 -2l4 84l383 -20l-6 -78q-53 -8 -72 -10q-11 -14 -14.5 -63.5t-14.5 -301.5q-7 -162 -12 -270h-80l-2 182q-59 -76 -114.5 -108.5t-128.5 -32.5q-180 0 -273 176q-65 122 -95 277t-30 300z" />
<glyph unicode="h" horiz-adv-x="985" d="M51 1321v61l381 -22v-62q-76 -7 -76 -100l4 -528l256 45l-8 602q0 37 -16 53q-27 16 -60 16v62l402 27v-62q-41 -7 -55.5 -32t-16.5 -64l-51 -1155v-7q1 -32 17 -55q18 -26 57 -30v-66l-342 27v61q78 8 78 78l-5 465l-256 -45v-492q0 -17 5.5 -39t11.5 -28q39 -34 65 -37 v-60l-346 -16v62q42 22 60.5 46t17.5 72l-47 1100q-5 116 -76 123z" />
<glyph unicode="i" horiz-adv-x="546" d="M51 16v72q51 7 72.5 25t32.5 49l22 1057v12q0 51 -14 77q-16 30 -64 46v59l396 -33v-61q-76 -17 -86 -80l-60 -1044q0 -4 1 -15.5t5 -29t9 -23.5q4 -3 19.5 -16.5t29 -23t22.5 -11.5v-60h-385z" />
<glyph unicode="j" horiz-adv-x="845" d="M51 240q0 80 39 116q37 33 92 33h6q127 -5 127 -121q0 -53 -32.5 -82.5t-83.5 -29.5q-16 0 -29 8q0 -28 41 -51t127 -23q90 0 131 57q43 56 43 173v20l-23 1001q-3 15 -5 20.5t-12.5 14t-33.5 17.5q-40 10 -49 10v84l406 -29v-84q-39 -2 -58 -20.5t-20 -65.5l-23 -903 q-3 -113 -13 -164t-38 -108q-3 -4 -14.5 -21.5t-15.5 -23t-15 -19t-19 -20t-20.5 -15t-26.5 -14.5q-76 -29 -149 -29q-57 0 -129 25.5t-137 89.5q-25 24 -41.5 64t-20.5 61.5t-4 28.5z" />
<glyph unicode="k" horiz-adv-x="974" d="M51 1438v61l381 -24v-62q-42 -25 -55 -35q-8 -7 -14.5 -36t-6.5 -50l-22 -590l299 504q16 26 16 58t-45 32q-7 0 -15 -1t-17.5 -2.5t-14.5 -2.5l-4 60l321 22l-6 -63q-11 0 -47 -4q-31 -4 -53 -25.5t-49 -65.5l-166 -278l264 -803q31 -59 39 -80q32 -14 45 -14q15 0 23 2 l-6 -59l-390 -27v55q66 16 66 64q0 9 -10 59l-129 641l-125 -201l-2 -380q0 -57 12 -82q11 -30 63 -37v-60l-331 -24v57q42 7 57.5 29.5t15.5 66.5l-18 1200q0 17 -4 34.5t-22.5 37.5t-49.5 23z" />
<glyph unicode="l" horiz-adv-x="761" d="M51 6v60q44 9 61 31.5t17 62.5l18 1122q0 86 -79 98v60l407 -31l-4 -61q-89 0 -94 -121l-60 -1055q1 -34 22 -51t50 -17q47 0 90 24t72 67q56 119 70 223l57 12l33 -389z" />
<glyph unicode="m" horiz-adv-x="1064" d="M51 1389v61l348 25l154 -510l125 489l336 -24v-89q-4 -2 -8 -2q-9 0 -24.5 5.5t-18.5 5.5q-4 0 -13 -9q-8 -15 -13 -42t-5 -35l-25 -1141v-7q0 -94 82 -100v-59l-383 29v59q60 8 86 31q1 3 7.5 19t10 29t3.5 26l24 1232l-168 -716h-84l-245 677l59 -1107q5 -89 23 -119 q22 -36 79 -43v-58h-309v60q98 16 98 128v13l-55 1090q-1 4 -2.5 16.5t-2.5 16t-3.5 12t-6 11.5t-9 8.5t-14 7.5t-20 5t-26.5 5z" />
<glyph unicode="n" horiz-adv-x="958" d="M51 1337v56l342 -21l320 -846l14 744q0 66 -16 104q-26 17 -86 27v57l282 -14v-58q-70 -6 -82 -18q-22 -19 -22 -98l-8 -1145h-103l-413 967l49 -895q14 -78 40 -106t64 -28v-55l-326 -12v51q59 8 84 66q17 44 17 97v11l-49 1002q-4 84 -23 108q-21 8 -51 8q-21 0 -33 -2 z" />
<glyph unicode="o" horiz-adv-x="899" d="M51 784q0 51 17.5 173.5t37.5 175.5q32 87 62.5 147t71.5 112t94 77.5t119 25.5q116 0 231 -106q51 -49 80 -101t49 -135q16 -65 24.5 -135t9.5 -114.5t1 -127.5q0 -227 -72 -444q-51 -154 -145 -243t-203 -89q-62 0 -120 30t-103 80.5t-78.5 113t-52.5 130.5 q-23 78 -23 430zM305 557q0 -146 25 -274q14 -66 43 -114t71 -48q87 0 127 162q57 227 60 530q0 41 2 115q1 50 1 88v35q-1 48 -7 92q-10 59 -20 100.5t-25.5 80.5t-38 59t-51.5 20q-54 0 -95 -66.5t-59 -193.5q-33 -246 -33 -586z" />
<glyph unicode="p" horiz-adv-x="882" d="M51 1343v60q47 1 151 4.5t172.5 5.5t84.5 2q210 0 291 -69t81 -226q0 -115 -59 -224t-108 -134q-55 -36 -116.5 -48t-144.5 -12h-59l-18 -589q8 -86 96 -93v-59l-320 12v58q54 3 72 23t16 59l-63 1149q-5 60 -16 67q-32 11 -60 14zM326 750h32q109 0 154 61 q37 54 56.5 140.5t19.5 172.5q0 85 -37 146q-21 32 -54.5 46.5t-93.5 14.5q-77 0 -77 -86v-495z" />
<glyph unicode="q" horiz-adv-x="927" d="M51 819q0 187 70 406q60 111 117 182l14 13q14 13 18 16t19.5 14.5t25.5 15.5t29.5 12t37.5 11.5t43.5 6.5t53.5 3q174 0 266 -151q49 -83 84 -195q48 -166 48 -399q0 -91 -7.5 -156t-35.5 -156q-21 -67 -58.5 -116t-101.5 -97l51 -196q19 -31 47 -31q19 0 27.5 16 t11.5 52q4 45 4 112h55q2 -29 2 -71q0 -58 -13 -106t-50.5 -85t-95.5 -37q-68 0 -111.5 66t-52.5 186q-46 -22 -94 -22q-202 0 -310 170q-57 150 -75.5 257t-18.5 279zM266 758q0 -30 19.5 -180t38.5 -201q59 86 137 86q72 0 123 -76q7 46 14.5 156.5t7.5 140.5 q0 216 -16.5 361.5t-61.5 265.5q-15 41 -36 66.5t-34 31.5t-22 6q-48 -7 -84.5 -38.5t-50.5 -92.5q-35 -156 -35 -526zM352 285q0 -42 25.5 -75.5t77.5 -33.5q53 0 74.5 26.5t21.5 80.5q0 57 -26.5 90t-75.5 33q-38 0 -67.5 -37t-29.5 -84z" />
<glyph unicode="r" horiz-adv-x="942" d="M51 1309v59q36 7 109.5 21.5t104.5 19.5t84.5 10.5t105.5 5.5q95 0 145.5 -10t95.5 -37q101 -57 101 -188q0 -19 -13 -107q-6 -34 -15.5 -63.5t-30.5 -66t-50.5 -63.5t-78.5 -49.5t-111 -31.5q77 -18 123.5 -47.5t80.5 -75.5q39 -57 39 -158q0 -51 -8 -124t-8 -123 q0 -142 57 -142q13 0 24.5 12t16.5 27q21 65 21 133q0 40 -2 56l45 -2q4 -20 4 -62q0 -268 -189 -268q-56 0 -94 24.5t-67 73.5q-18 37 -26 58q-7 21 -13 56q-4 26 -5 56q0 11 1 23l10 200l3 16q3 15 6 39.5t3 47.5q0 76 -24 119q-38 53 -158 53l-21 -531v-6q0 -33 20 -58 q22 -27 66 -30v-59h-327v59q52 7 71 35t17 59l-37 996q0 33 -76 43zM342 831l70 -6q7 0 13.5 0.5t12.5 2t10.5 2.5t10 4.5t8 4.5t7.5 5.5t6.5 5.5t7 6.5t6.5 5.5q44 39 65 125t23 164q0 67 -33 125q-19 34 -43.5 49.5t-63.5 15.5t-56 -20t-19 -59z" />
<glyph unicode="s" horiz-adv-x="804" d="M51 489l76 -6q103 -395 315 -395q132 0 166 141q4 20 4 43q0 93 -71 150q-7 7 -31.5 32t-72 73t-101.5 100q-113 107 -164 200q-44 81 -66 150q-20 102 -20 174q0 22 4 52.5t24 85t52 93.5q82 101 233 101q31 0 104.5 -33t78.5 -33q4 12 4 90l110 13v-435l-71 5 q-24 133 -95 227q-24 40 -62 70t-81 30q-74 0 -114 -25t-40 -100q0 -38 9.5 -76t28 -75.5t31 -59.5t35 -54.5t23.5 -33.5q33 -54 82 -106.5t90 -88t86.5 -85.5t73.5 -101q62 -106 62 -243q0 -161 -82 -254q-29 -26 -53.5 -43t-75.5 -34.5t-111 -17.5q-42 0 -128 38t-99 38 q-23 0 -37 -12q2 -8 2 -31q0 -29 -4 -45l-88 4z" />
<glyph unicode="t" horiz-adv-x="864" d="M51 1374l762 72l-25 -445h-55q-18 106 -50 188.5t-77 100.5l-67 8l-2 -1108q0 -63 14 -88q18 -35 74 -39v-77l-402 -21v78q16 2 51 2q58 21 64 100l-39 1119q-56 -7 -94 -35q-28 -40 -45.5 -108.5t-20.5 -141.5l-67 -14z" />
<glyph unicode="u" horiz-adv-x="923" d="M51 1270v61l402 -16v-60q-86 -47 -86 -116l12 -817q0 -134 22 -187q39 -88 150 -88q113 0 156 88q31 64 31 154q0 17 -1 35l-45 872q0 5 -0.5 20.5t-1.5 25.5t-3 24t-6 26t-11 23q-32 25 -80 43v61l282 -6v-59q-8 -4 -27 -11.5t-32.5 -14.5t-19.5 -13q-15 -26 -23 -119 l45 -860q1 -14 1 -28q0 -70 -18 -132q-20 -74 -59 -119q-78 -90 -260 -90q-94 0 -158 22.5t-101 68t-53 106.5t-17 147l-13 889q0 43 -43 64z" />
<glyph unicode="v" horiz-adv-x="935" d="M51 1257v60l375 51v-59q-70 0 -70 -52q0 -25 4 -45l205 -833l109 678q4 28 4 51q0 69 -90 78v61l297 25v-60q-79 -14 -99 -131l-217 -1149h-131l-278 1215q-14 59 -31 84q-16 14 -78 26z" />
<glyph unicode="w" horiz-adv-x="1067" d="M51 1391v57l297 -53v-60q-75 -6 -72 -65l70 -856l113 534l8 99q3 30 -5 46t-34 31q-19 11 -55 11v59l313 -2v-59q-69 -7 -82 -50q-2 -7 -14 -90l170 -631l8 889q0 116 -102 123v58l350 45v-58q-63 -15 -76 -41q-35 -54 -37 -106l-35 -1313l-153 18l-199 844l-194 -864 l-78 10l-119 1247q0 5 -2 27.5t-3.5 32t-4.5 29.5t-8 30.5t-12.5 24.5t-18.5 21.5t-25 11.5z" />
<glyph unicode="x" horiz-adv-x="1015" d="M51 76v55q37 3 64 15t47 36.5t30 42.5t28 57q5 10 7 15l191 412l-205 544q-24 65 -127 72l-6 57l403 52v-58q-57 -3 -57 -39q0 -19 12 -47l119 -368l125 272q14 28 14 53q-2 38 -6.5 51.5t-21.5 20.5q-31 13 -56 16v58l324 43v-58q-99 0 -148 -112l-192 -439l233 -612 q12 -30 19 -46t20.5 -32t28.5 -20q8 -1 31.5 -8t36.5 -7v-53l-408 -49v53q31 2 49.5 14.5t18.5 34.5q0 19 -17 62l-153 444l-154 -325q-2 -11 -10 -39t-10 -41q0 -32 20 -49q11 -9 31.5 -27t27.5 -23v-53z" />
<glyph unicode="y" horiz-adv-x="946" d="M51 1362v57l393 -14l-4 -59q-34 0 -58 -13.5t-24 -40.5q0 -22 11 -59l172 -641l147 473q12 37 12 55q0 54 -18 79t-68 26v57l281 23v-56q-32 -4 -57.5 -35t-38 -63.5t-28.5 -82.5q-3 -11 -5 -17l-184 -576l-15 -405v-5q0 -79 90 -88v-57l-358 -22v57q30 3 49.5 15.5 t28 31.5t11 35t1.5 33l-12 422l-221 800q-10 43 -39 72q-1 0 -12 1t-17 1q-23 0 -37 -4z" />
<glyph unicode="z" horiz-adv-x="913" d="M51 39v74l611 1167q-147 14 -205 14q-69 0 -107 -4t-67 -20q-34 -54 -47 -108.5t-19 -129.5h-55l-10 387l710 -16v-47l-631 -1153q28 -2 140.5 -13.5t146.5 -11.5q47 0 73 7.5t44 29.5q39 55 104 195h66l2 -430z" />
<glyph unicode="{" horiz-adv-x="849" d="M76 608q62 5 108.5 18t76 35t47.5 45.5t26.5 59.5t11 66t2.5 75v385q0 209 101 283q49 36 121.5 48.5t177.5 14.5l-21 -77q-67 0 -98 -5q-36 -6 -58 -28q-67 -73 -67 -211v-322q0 -258 -35 -307q-60 -91 -168 -115q55 -10 98.5 -41.5t69.5 -72.5q35 -53 35 -307v-138 q0 -135 67 -207q48 -53 177 -53l40 -78q-98 0 -192 21q-108 25 -164 74q-84 73 -84 270v201q0 49 -2.5 81t-16.5 75.5t-39.5 70t-74.5 47.5t-119 25z" />
<glyph unicode="|" d="M424 -481v2107h178v-2107h-178z" />
<glyph unicode="}" horiz-adv-x="849" d="M63 -324l41 78q133 4 177 53q67 77 67 207v138q0 254 35 307q60 91 168 114q-104 21 -168 115q-35 49 -35 307v322q0 136 -67 211q-16 16 -42.5 24t-45 8.5t-68.5 0.5l-21 77q213 0 299 -63q101 -77 101 -283v-385q0 -156 53 -217q59 -68 219 -82l-20 -67 q-118 -9 -176 -58q-76 -62 -76 -241v-201q0 -194 -84 -270q-57 -49 -164 -74q-95 -21 -193 -21z" />
<glyph unicode="~" horiz-adv-x="1355" d="M70 510q25 185 115.5 289t236.5 104q95 0 164 -31q47 -21 96.5 -58.5t88 -73.5t77 -70t77.5 -55t76 -21q24 0 64.5 20t62.5 45q10 11 21.5 31.5t20.5 42.5t18.5 48t15.5 44.5t11.5 36.5t5.5 19l57 -4q-12 -143 -55 -244q-42 -100 -127 -157.5t-183 -57.5q-150 0 -368 160 q-111 83 -152 102q-43 20 -86 20q-70 0 -114 -55q-19 -26 -64 -137z" />
<glyph unicode="&#xad;" d="M111 719v143l802 -8v-143z" />
<glyph unicode="&#x2000;" horiz-adv-x="826" />
<glyph unicode="&#x2001;" horiz-adv-x="1653" />
<glyph unicode="&#x2002;" horiz-adv-x="826" />
<glyph unicode="&#x2003;" horiz-adv-x="1653" />
<glyph unicode="&#x2004;" horiz-adv-x="551" />
<glyph unicode="&#x2005;" horiz-adv-x="413" />
<glyph unicode="&#x2006;" horiz-adv-x="275" />
<glyph unicode="&#x2007;" horiz-adv-x="275" />
<glyph unicode="&#x2008;" horiz-adv-x="206" />
<glyph unicode="&#x2009;" horiz-adv-x="330" />
<glyph unicode="&#x200a;" horiz-adv-x="91" />
<glyph unicode="&#x2010;" d="M111 719v143l802 -8v-143z" />
<glyph unicode="&#x2011;" d="M111 719v143l802 -8v-143z" />
<glyph unicode="&#x2012;" d="M111 719v143l802 -8v-143z" />
<glyph unicode="&#x2013;" horiz-adv-x="1246" d="M111 719v143l1024 -8v-143z" />
<glyph unicode="&#x2014;" horiz-adv-x="2270" d="M111 719v143l2048 -8v-143z" />
<glyph unicode="&#x202f;" horiz-adv-x="330" />
<glyph unicode="&#x205f;" horiz-adv-x="413" />
<glyph unicode="&#x25fc;" horiz-adv-x="1433" d="M0 0v1434h1434v-1434h-1434z" />
</font>
</defs>
</svg>
