<?xml version="1.0" standalone="no"?> <!DOCTYPE svg PUBLIC "-//W3C//DTD SVG 1.0//EN" "http://www.w3.org/TR/2001/REC-SVG-20010904/DTD/svg10.dtd" > <svg xmlns="http://www.w3.org/2000/svg" width="100%" height="100%">
<defs >
<font id="Horseshoes" horiz-adv-x="426" ><font-face
    font-family="Horseshoes"
    units-per-em="1000"
    panose-1="0 0 0 0 0 0 0 0 0 0"
    ascent="1027"
    descent="-173"
    alphabetic="0" />
<missing-glyph horiz-adv-x="545" />
<glyph unicode=" " glyph-name="space" horiz-adv-x="545" />
<glyph unicode="&quot;" glyph-name="quotedbl" horiz-adv-x="205" d="M85 772L88 618L37 604L29 757L85 772ZM182 764L176 602L133 615L123 769L182 764Z" />
<glyph unicode="#" glyph-name="numbersign" horiz-adv-x="653" d="M99 -27L148 200H67L69 257H161L194 427H68L74 486H208L250 697H309L267 487L412 486L466 732H528L475 486H608L602 427H462L428 257H547L542 200H414L372 0H311L355 200L205 201L158 -26L99
-27ZM219 258L367 257L401 427L253 428L219 258Z" />
<glyph unicode="$" glyph-name="dollar" horiz-adv-x="391" d="M188 709Q160 706 143 695T116 667T103 634T100 603Q100 586 102 570T112 535Q118 523 126 508T143 478T161 451T181 433L188 709ZM207 26Q300 58 300 145Q300 167 293 186T275 223T249 256T218 288L207
26ZM156 -121L161 -9Q106 -5 66 28Q42 48 32 71T21 119Q21 148 37 170T83 192Q110 192 125 175T140 132Q140 106 126 91T78 75Q83 67 91 58T111 42T135 29T163 22L176 312Q141 342 116 373T70 437Q36 490 36 558Q36 589 43 619T68 674T115 719T189 749L190 807L233
805L231 751Q256 749 280 739T323 713T353 677T365 632Q365 608 351 589T308 570Q283 570 268 586T252 625Q252 646 264 661T305 683Q293 698 276 705T231 711L223 399Q259 376 287 357T332 314Q354 281 361 250T369 191Q369 115 331 63T204 -8L198 -125L156 -121Z"
/>
<glyph unicode="%" glyph-name="percent" horiz-adv-x="747" d="M625 757L153 -84L110 -72L581 770L625 757ZM178 758Q204 758 225 744T262 704T285 643T294 567Q294 461 257 405T157 350Q131 350 110 366T73 408T50 468T41 541Q41 575 47 613T69 683T111 736T178
758ZM174 722Q156 722 145 703T126 655T117 590T114 520Q114 499 116 477T120 437Q123 416 131 397T158 376Q170 376 176 384T190 403Q201 421 208 459T216 542Q216 579 216 619T207 688Q203 701 198 711T174 722ZM568 343Q600 343 625 325T667 278T692 209T701
128Q701 83 692 49T666 -8T630 -42T588 -54Q549 -54 524 -35T482 15T460 82T453 154Q453 187 461 220T485 281T521 325T568 343ZM572 305Q559 305 554 293T543 270Q537 259 534 242T530 204T528 165T528 129Q528 116 530 98T537 61T546 25T558 -1Q563 -9 569 -16T588
-24Q597 -24 605 -15T620 7Q628 25 631 52T634 115Q634 132 633 155T628 201T619 245T606 278Q599 290 591 297T572 305Z" />
<glyph unicode="&amp;" glyph-name="ampersand" horiz-adv-x="550" d="M247 522Q267 538 286 554T320 587Q337 608 346 628T357 671Q357 684 350 698T333 729Q323 743 310 747T276 751Q245 751 235 728T224 670Q225 633 230 600T247 522ZM337 74Q286 159 248 243T179
413Q170 405 164 399T151 377Q143 360 137 345T131 315Q131 288 132 265T140 209Q143 194 150 166T165 114Q168 102 175 87T190 61Q203 41 223 25T270 8Q278 9 291 17T310 32Q313 36 321 49T337 74ZM365 40Q349 17 325 -6T274 -41Q261 -46 245 -48T213 -51Q192
-51 172 -44T135 -24T102 2T75 31Q48 64 35 101T22 190Q22 237 29 274T57 346Q75 377 98 404T159 458Q143 504 134 542T124 620Q124 658 133 686T163 738Q185 764 210 776T274 789Q306 789 330 779T371 751T396 711T404 666Q404 638 393 613T363 565T317 520T260
479Q278 429 295 379T332 281Q343 254 356 226T385 172Q394 201 400 234T411 297Q416 326 418 357T421 406Q421 420 404 429T360 437V470L537 440V407Q521 407 512 411T491 415Q484 415 479 406T469 382Q464 365 459 345T450 308Q442 261 433 212T410 114Q424 89
440 74T474 58Q497 58 504 73T511 106Q511 129 505 142T489 166H521Q542 144 542 106Q542 94 539 79T530 47T514 17T490 -5Q481 -9 471 -10T450 -11Q441 -11 423 -5T390 9Q381 14 376 23T365 40Z" />
<glyph unicode="&apos;" glyph-name="quotesingle" horiz-adv-x="146" d="M102 764L96 612L50 625L40 769L102 764Z" />
<glyph unicode="(" glyph-name="parenleft" horiz-adv-x="351" d="M276 -138Q217 -91 179 -36T108 80Q79 133 65 190T51 305Q52 383 64 454T105 588Q130 642 168 696T262 799Q271 791 279 784T297 769Q215 682 184 595Q157 518 147 449T137 308Q137 240 148 183T178
83Q198 35 226 -14T300 -108L276 -138Z" />
<glyph unicode=")" glyph-name="parenright" horiz-adv-x="339" d="M42 -108Q66 -83 84 -60T116 -14T142 32T164 83Q186 142 195 195T205 308Q205 382 195 454T158 595Q148 623 136 645T111 688T81 728T45 769L80 799Q131 755 170 699T237 588Q252 558 262 522T279
449T288 375T291 305Q291 247 278 194T234 80Q200 15 160 -40T66 -138L42 -108Z" />
<glyph unicode="*" glyph-name="asterisk" horiz-adv-x="291" d="M42 702L66 718L127 661L167 738L194 731L161 650L274 653V623L162 617L236 542L204 525L139 596L98 513L69 530L106 611L24 607L26 639L94 642L42 702Z" />
<glyph unicode="+" glyph-name="plus" horiz-adv-x="494" d="M42 327L219 330L216 525L281 531L279 331L447 332L444 274L280 273L279 102L220 100V270L43 269L42 327Z" />
<glyph unicode="," glyph-name="comma" horiz-adv-x="196" d="M151 90Q150 74 149 55T146 18T143 -14T140 -35Q138 -50 126 -79T91 -141L42 -90Q53 -62 60 -36T67 17Q67 39 65 61T60 105L151 90Z" />
<glyph unicode="-" glyph-name="hyphen" horiz-adv-x="500" d="M446 417V347L54 351V421L446 417Z" />
<glyph unicode="." glyph-name="period" horiz-adv-x="185" d="M161 32Q161 9 142 -11T92 -31Q81 -31 70 -26T49 -12T34 8T28 32Q28 45 33 57T47 79T67 95T92 101Q120 101 140 83T161 32Z" />
<glyph unicode="/" glyph-name="slash" horiz-adv-x="328" d="M312 769L80 -112L17 -92L247 789L312 769Z" />
<glyph unicode="0" glyph-name="zero" horiz-adv-x="446" d="M308 367Q308 404 308 445T302 524Q300 542 296 564T285 604T265 635T235 648Q219 648 208 637T189 608T176 568T169 524Q164 484 164 445T164 367Q164 300 170 236T192 107Q200 78 213 61T247 43Q273
43 284 62T303 107Q308 124 309 145T310 177Q309 252 309 299T308 367ZM421 381Q421 355 421 325T419 266T414 211T406 168Q397 138 381 108T344 54T295 15T235 -1Q203 -1 176 13T128 51T90 106T62 171Q45 220 35 275T25 381Q25 425 30 463T49 541Q61 576 74 611T108
675T156 721T223 739Q251 739 276 728T327 689Q355 651 370 615T397 540Q410 502 415 462T421 381Z" />
<glyph unicode="1" glyph-name="one" horiz-adv-x="311" d="M286 9L25 34V62L81 61Q86 61 91 62T98 65Q102 69 104 77T107 93T108 109T109 119L122 563Q122 574 120 582T109 599Q102 604 92 603L37 599V628Q60 631 82 642T118 664L189 719H216L204 115Q204 107
205 92T214 64Q222 54 230 48T249 40L286 38V9Z" />
<glyph unicode="2" glyph-name="two" horiz-adv-x="400" d="M25 13V62Q33 94 43 125T58 168Q74 200 91 229T134 293Q147 311 163 331T196 371T224 407T243 434Q255 458 263 487T271 548Q271 602 246 631T167 660Q136 660 114 642T87 585Q92 587 97 589T109 591Q129
591 144 577T160 538Q160 516 146 499T107 482Q78 482 62 501T46 562Q46 592 58 617T92 660T140 688T198 698Q235 698 267 688T324 658T362 607T376 533Q376 509 355 475T302 403T237 329T178 267Q158 245 144 231T120 201Q105 166 90 129Q109 127 130 123T172
115T207 108T230 105Q242 105 253 106T273 114T291 135T305 177H332L322 0L25 13Z" />
<glyph unicode="3" glyph-name="three" horiz-adv-x="391" d="M196 708Q230 708 261 698T315 666T352 610T366 528Q366 510 362 490T350 452T334 417T315 390Q304 379 293 371T269 356T238 345T197 336Q272 318 305 274T339 170Q339 160 338 146T333 116T320 84T297
54Q271 30 239 10T166 -11Q145 -11 121 -5T74 21Q53 40 39 58T25 97Q25 106 26 117T33 137T48 152T75 158Q125 158 125 110Q125 94 120 85T107 70T89 64T70 62Q86 44 105 32T144 19Q158 19 181 33T222 73Q232 87 235 116T239 173Q239 243 222 283T164 324Q156 324
151 322T138 319Q118 319 118 338Q118 348 123 352T137 356Q145 356 154 354T172 351Q192 351 205 360T230 390Q247 422 255 459T263 531Q263 610 239 642T175 674Q153 674 131 663T99 618Q104 619 109 619T118 620Q166 620 166 568Q166 552 155 535T118 517Q86
517 73 540T60 590Q60 619 70 638T102 677Q122 694 144 701T196 708Z" />
<glyph unicode="4" glyph-name="four" horiz-adv-x="372" d="M184 251V378Q184 395 184 411T186 442Q188 462 190 483T194 528L82 239L184 251ZM129 11V40Q143 43 153 45T170 53T180 67T184 93V210L25 185V237L224 709H282V263L346 275V234L282 222V89Q282 78
284 69T295 52Q307 37 315 34T333 28V0L129 11Z" />
<glyph unicode="5" glyph-name="five" horiz-adv-x="383" d="M317 386Q330 369 338 355T352 323Q356 309 357 291T358 253Q358 201 349 151T313 66Q302 52 292 38T267 10Q251 -2 237 -6T205 -11Q175 -11 147 -2T97 24T62 68T48 128Q48 141 52 154T63 177T83 194T112
201Q135 201 152 185T169 141Q169 116 156 101T106 86Q112 52 131 40T177 27Q204 27 212 40Q217 45 223 56T235 81Q253 123 261 160T270 242Q270 264 267 280T256 315Q248 327 242 338T230 362Q222 378 207 390T163 403Q142 403 123 395T87 363Q85 337 78 317T54
296Q35 296 35 316Q35 342 51 366L20 678H59Q67 678 81 677T120 675Q180 675 223 680T292 696Q291 685 291 673T289 647Q284 624 266 613T222 596Q207 593 181 592T131 590Q120 590 108 583T84 575Q79 575 77 575T70 576L88 413Q116 434 141 442T191 451Q231 451
262 434T317 386Z" />
<glyph unicode="6" glyph-name="six" horiz-adv-x="371" d="M140 308Q139 279 139 262T138 234T137 217T137 207Q137 175 145 139T163 69Q171 41 206 41Q220 41 230 44T245 59Q253 79 255 111T257 170Q257 212 253 253T235 336Q230 351 222 358T199 366Q191 366
183 363T167 354Q162 349 155 335T140 308ZM143 371Q159 387 179 399T227 412Q264 412 287 393T324 344Q338 315 343 283T348 218Q347 165 342 126T318 58Q301 32 272 15T197 -2Q163 -2 131 16T77 74Q70 86 64 108T52 159T41 221T33 287Q28 333 27 368T25 444Q25
492 29 538T53 620Q77 664 113 691T199 718Q217 718 235 713T268 696T292 668T302 628Q302 602 287 584Q280 579 268 568T249 556Q241 556 230 565T209 582Q201 590 198 600T194 620Q194 641 206 654T239 678Q225 691 206 691Q156 691 133 630Q126 613 125 591T123
547Q123 509 127 463T143 371Z" />
<glyph unicode="7" glyph-name="seven" horiz-adv-x="371" d="M289 609Q235 618 205 623T160 631T141 633T134 634Q115 633 103 624T84 607Q73 592 66 578T53 539H25L46 720L346 683V645Q332 614 318 584T290 521Q276 487 264 458T244 394Q227 326 223 268T218
152Q218 147 218 135T219 109T219 83T220 65Q220 52 218 38T210 11T191 -9T158 -17Q126 -17 116 5T105 58Q105 71 109 89T118 127T130 168T142 209L189 375Q208 441 233 499T289 609Z" />
<glyph unicode="8" glyph-name="eight" horiz-adv-x="369" d="M183 17Q206 17 223 26T252 48T270 79T276 112Q276 145 271 176T248 232Q237 248 211 272T155 316Q141 307 128 288T106 249Q95 221 91 190T87 143Q87 118 92 98T108 58Q117 43 136 30T183 17ZM226
407Q247 428 257 448T273 490T279 531T282 573Q282 593 280 614T269 652T245 680T201 691Q177 691 161 683T136 661T122 630T118 593Q118 561 122 536T142 484Q158 459 177 443T226 407ZM248 391Q274 369 291 350T322 304Q333 284 338 252T344 168Q344 133 332
100T296 40Q249 -12 172 -12Q105 -12 65 28T25 133Q25 145 26 159T31 188T39 217T53 242Q68 265 86 288T133 333Q114 350 98 376T73 424Q61 453 57 480T53 543Q53 572 61 604T92 666Q117 698 145 709T204 720Q264 720 302 681T338 573Q337 543 335 521T323 478T296
438T248 391Z" />
<glyph unicode="9" glyph-name="nine" horiz-adv-x="383" d="M225 361Q233 368 235 380T239 395Q239 421 239 445T238 496Q236 525 234 554T228 606Q226 618 223 632T213 658T197 679T173 687Q155 687 141 663T127 575Q127 530 133 477T156 378Q160 368 167 359T193
349Q201 349 210 352T225 361ZM251 343Q232 325 214 314T170 302Q129 302 102 317T58 359T34 421T25 495Q25 514 25 530T28 564T36 599T53 639Q73 682 103 699T168 717Q187 717 205 716T238 711Q255 705 267 695T291 667Q320 622 336 564T356 444Q357 423 357 408T358
371Q358 337 357 300T353 227T342 160T324 108Q295 53 259 30T181 7Q133 7 103 33T73 96Q73 128 89 143T125 159Q155 159 169 141T183 106Q183 87 174 73T140 48Q147 41 156 39T173 36Q199 36 217 53T244 97Q249 108 250 137T252 204Q253 239 252 275T251 343Z"
/>
<glyph unicode=":" glyph-name="colon" horiz-adv-x="196" d="M170 470Q170 459 165 448T151 427T129 412T101 406Q90 406 79 411T59 426T44 446T38 470Q38 498 57 518T101 538Q129 538 149 521T170 470ZM144 106Q144 88 127 69T82 50Q73 50 63 54T45 66T31 84T25
106Q25 133 43 150T82 168Q108 168 126 152T144 106Z" />
<glyph unicode=";" glyph-name="semicolon" horiz-adv-x="196" d="M167 99Q165 67 160 33T146 -29Q137 -55 126 -80T85 -141L32 -97Q52 -54 58 -22T65 46Q65 63 64 79T60 112L167 99ZM171 471Q171 460 166 449T152 428T130 412T102 406Q91 406 80 411T59 426T44
447T38 471Q38 499 57 519T102 539Q130 539 150 521T171 471Z" />
<glyph unicode="&lt;" glyph-name="less" horiz-adv-x="514" d="M469 492L136 339L463 163L443 112L44 317V357L450 549L469 492Z" />
<glyph unicode="=" glyph-name="equal" horiz-adv-x="550" d="M481 282V197L79 203V268L481 282ZM481 456V382L79 388V462L481 456Z" />
<glyph unicode="&gt;" glyph-name="greater" horiz-adv-x="514" d="M63 549L469 357V317L70 112L50 163L377 339L44 492L63 549Z" />
<glyph unicode="?" glyph-name="question" horiz-adv-x="388" d="M117 108Q108 161 102 197T93 260T88 304T86 338Q86 347 87 357T91 373Q106 399 121 426T151 479Q164 502 183 527T224 575Q229 581 236 589T251 608T263 627T268 645Q268 681 243 718Q230 737
210 749T175 762Q168 762 157 760T135 755T116 749T105 745Q97 740 89 728T75 705Q100 704 120 693T140 649Q140 627 126 610T80 592Q51 592 35 607T19 661Q19 728 57 758Q66 765 80 772T112 786T148 795T184 799Q221 799 253 783T313 740Q334 721 345 699T356
643Q356 615 347 589T322 541Q314 529 299 517T267 493T233 466T202 435Q188 417 175 399T150 363Q145 355 144 340T142 311Q142 282 144 252T152 193Q154 179 157 162T163 128L117 108ZM92 -21Q92 7 111 27T162 47Q193 47 212 27T231 -21Q231 -53 210 -72T162
-91Q129 -91 111 -69T92 -21Z" />
<glyph unicode="@" glyph-name="at" horiz-adv-x="764" d="M520 447L574 429Q556 355 546 313T531 250T525 223T523 216Q523 193 532 184T556 175Q573 175 589 182T617 208Q625 222 630 236T642 273Q643 278 644 288T646 312T647 340T647 368Q647 385 645 400T637
432Q632 449 627 464T610 489Q593 504 574 518T532 544Q512 554 487 560T431 566Q404 566 377 564T321 550Q244 518 192 477T120 384Q108 351 102 320T96 253Q96 190 118 136T186 42Q233 2 291 -15T407 -32Q447 -32 479 -27T538 -11T592 15T645 50Q651 45 657 41T669
31Q613 -11 549 -34T407 -57Q340 -57 275 -41T161 14Q125 42 102 72T64 135T45 200T39 267Q39 345 70 414T172 541Q226 586 292 608T426 630Q491 630 547 617T646 566Q688 528 713 477T739 357Q739 327 738 295T726 240Q715 214 698 190T649 136Q638 127 622 119T588
103Q582 101 576 101T562 100Q560 100 550 101T536 102Q522 102 508 105T481 116T461 141T451 183Q428 145 401 124T341 103Q312 103 286 116T243 158Q228 184 222 208T216 274Q216 290 219 310T228 347Q235 368 243 384T262 411Q291 439 322 451T384 464Q396 464
409 461T435 454T457 444T471 435Q495 412 500 380L520 447ZM435 330Q435 349 430 367T413 409Q405 418 396 423T374 429Q369 429 359 426T337 411Q314 387 302 358T281 293Q277 278 277 259Q277 233 282 211T303 168Q311 157 320 153T340 148Q351 149 358 153T376
165Q386 173 397 189T412 213Q419 228 423 245Q426 255 428 263T432 279Q435 296 435 307T435 330Z" />
<glyph unicode="A" glyph-name="A" horiz-adv-x="481" d="M210 528L151 252L257 263L210 528ZM263 4V31Q283 32 291 40T300 61Q300 69 300 77T297 94L264 225L142 214L113 136Q111 132 111 124T110 110Q110 91 121 79T159 64V37H25V64Q48 66 60 90T80 145L219
729H277L404 100Q409 74 420 54T456 31V4H263Z" />
<glyph unicode="B" glyph-name="B" horiz-adv-x="445" d="M221 12Q180 9 140 6T60 0V42Q80 45 89 55T97 87Q89 224 80 358T60 630Q59 641 58 649T54 662T43 671T22 676V719Q68 716 112 713T202 706Q240 704 276 697T343 671Q378 649 389 616T401 547Q401 417 242
386Q292 378 326 361T381 321T411 269T420 210Q420 194 419 175T412 135T397 95T370 60Q344 36 307 26T221 12ZM161 371Q163 301 166 231T173 89Q174 64 183 53T208 42Q232 42 246 57T268 96T278 147T281 198Q281 231 278 263T262 318Q249 340 228 355T161 371ZM161
400H170Q224 400 246 435T268 533Q268 556 266 584T259 629Q249 656 231 666T189 676Q177 676 169 670T161 643V400Z" />
<glyph unicode="C" glyph-name="C" horiz-adv-x="410" d="M322 179H354Q354 145 354 123T352 90Q350 81 345 68T329 42Q309 12 279 2T217 -8Q171 -8 132 16T64 89Q51 111 43 142T31 206T26 270T25 327Q25 456 91 575Q119 624 154 647T229 670Q252 670 268 662T298
643H314L305 706H358L385 458H339Q333 484 323 515T301 575T272 621T236 640Q213 640 200 622T179 571Q164 508 151 443T138 326Q138 267 140 211T158 106Q163 93 170 81T189 57Q213 32 239 32Q259 32 277 41T309 75Q317 89 319 99T322 114V179Z" />
<glyph unicode="D" glyph-name="D" horiz-adv-x="458" d="M185 117Q185 107 187 95T192 78Q196 72 203 70T219 68Q229 68 240 68T259 70Q268 73 275 84T286 114Q287 118 289 140T294 209T301 332T311 524Q312 538 311 555T307 584Q303 598 292 608T266 626T237
638T209 642Q196 642 189 637T178 625T173 609T172 592L185 117ZM59 2V44Q85 48 92 60T97 89L60 595Q58 612 52 625T23 642V696L163 684Q188 682 218 678T277 668T331 651T372 628Q380 621 387 609T402 583T415 554T426 525Q431 508 432 490T433 451Q433 396 428
348T411 246Q407 228 403 208T392 167T379 130T361 99Q329 60 283 40T175 14L59 2Z" />
<glyph unicode="E" glyph-name="E" horiz-adv-x="409" d="M25 14V54Q61 60 63 99L74 628Q74 645 68 657T36 674V703L382 714L384 548H354Q351 563 346 578T333 604L306 636Q289 656 268 665T223 674Q198 674 193 664T186 628L175 387Q192 389 206 397T232 419Q234
421 241 427T256 438Q264 444 267 452T272 469H302L291 260H261Q259 278 254 287T234 317Q220 336 207 344T175 355V95Q175 72 185 63T209 54Q231 54 252 63T293 99Q301 108 308 117T324 138Q334 154 339 168T349 200H377L374 25L25 14Z" />
<glyph unicode="F" glyph-name="F" horiz-adv-x="413" d="M388 493H363Q358 510 351 527T330 562Q308 592 278 617Q246 644 208 644Q200 644 193 643T182 636Q173 628 173 597V373Q193 375 205 383T229 405Q231 408 238 413T253 423Q261 428 264 433T271 453H299L275
250H247Q246 263 243 277T232 303Q211 335 173 342V78Q173 53 184 44T215 32V4L42 -7V20Q59 29 72 42T85 78Q79 208 75 298T69 448T64 541T61 592T60 613T58 620Q53 632 44 637T24 644V671L365 696L388 493Z" />
<glyph unicode="G" glyph-name="G" horiz-adv-x="432" d="M338 -8L316 49Q288 27 265 20T218 13Q184 13 149 31T85 99Q53 156 39 215T25 334Q25 365 27 398T34 465T48 528T71 582Q103 636 142 657T226 679Q243 679 257 671T285 653L326 641L340 729L382 716L359
468H326Q319 496 310 528T287 587T258 632T221 650Q206 650 195 639T176 610T164 568T156 519Q151 473 150 427T149 338Q149 288 153 221T175 91Q183 63 196 54T224 45Q237 45 248 52T266 73Q281 101 281 138Q281 142 281 147T280 166T276 203T268 268Q266 288
263 295T249 303Q241 303 236 302T221 301V344L408 357V314Q399 312 388 310T372 301Q364 287 365 268L377 -8H338Z" />
<glyph unicode="H" glyph-name="H" horiz-adv-x="481" d="M308 380L295 610Q294 619 294 627T288 643Q285 645 279 645Q274 645 271 645T259 644V674L456 686V656Q436 653 429 640T421 610L409 29Q407 -9 444 -15V-44L271 -56V-27Q279 -25 285 -19T300 -3Q305
2 306 12T308 29V341L187 353L211 104Q213 79 220 70Q222 68 227 68Q229 68 233 69T249 70V40L61 28V58Q84 62 92 73T99 104L62 646Q61 660 59 669T51 684Q44 689 37 691T25 694V723L211 735V706Q205 704 198 697T183 682Q173 669 174 646L187 392L308 380Z" />
<glyph unicode="I" glyph-name="I" horiz-adv-x="265" d="M199 79Q200 66 201 58T207 44T217 33T235 22V-7L49 4V34Q74 37 81 49T87 79L62 598Q61 611 58 620T49 634T37 641T25 644V674L211 686V656Q203 654 194 646T182 632Q175 622 175 614T174 598L199 79Z" />
<glyph unicode="J" glyph-name="J" horiz-adv-x="368" d="M343 677Q320 676 314 665T308 636Q310 596 312 548T318 449T324 350T329 262T332 196T334 162Q334 144 330 115T308 61Q297 47 285 30T255 5Q230 -6 205 -14T154 -22Q128 -22 103 -11T50 21Q36 32 31
52T25 96Q25 165 90 165Q99 165 109 163T127 155T140 138T146 109Q146 89 133 72T90 55Q83 55 74 58L72 55Q83 38 99 32T132 25Q141 25 154 30T180 44T203 61T218 77Q231 103 233 121T235 153Q235 161 233 188T228 256T221 344T213 444T204 544T197 634Q196 644
194 654T186 669Q184 670 180 670Q175 670 166 667T148 664V705L343 718V677Z" />
<glyph unicode="K" glyph-name="K" horiz-adv-x="478" d="M174 63Q174 53 175 42T179 24Q184 13 192 10T210 5V-24L49 -11V18Q88 21 86 63L61 644Q60 659 54 673T25 690V720L223 733V703Q219 703 211 695T195 678Q189 671 188 659T186 644L174 343L321 589Q326
597 327 603T329 618Q329 630 316 635T282 641V670L439 658L438 629Q433 630 426 630T413 631Q410 631 404 631T393 630Q385 625 378 615T363 593L279 443L405 125Q410 113 414 103T423 82Q425 81 427 80T431 79Q436 79 439 80T453 81V50L263 25V53Q268 55 275
62T290 75Q296 84 296 95Q296 103 295 110T291 125L228 367L174 269V63Z" />
<glyph unicode="L" glyph-name="L" horiz-adv-x="395" d="M47 24V53Q70 57 78 69T85 99L63 626Q62 642 55 656T25 674V703L222 715L221 686Q214 685 204 677T185 661Q179 656 177 646T175 626L186 94Q188 53 220 53Q250 53 265 63T290 88Q304 109 317 140T343
203H370L359 13L47 24Z" />
<glyph unicode="M" glyph-name="M" horiz-adv-x="520" d="M61 -46V-16Q78 -13 86 -4T98 16T102 37T102 50Q102 55 101 82T96 153T90 251T82 366T74 487T66 603Q65 612 63 623T49 637Q45 639 40 640T25 644V673L195 685L260 476L331 735L495 723V680Q494 680 491
680T482 681Q480 681 476 681T464 680Q460 673 458 660T455 641L443 85Q442 62 451 48T483 32V3H296V32Q310 34 321 39T338 52Q342 59 345 69T348 98L360 700L271 330H230L117 623L155 61Q157 41 159 24T166 3Q173 -5 181 -10T204 -17V-46H61Z" />
<glyph unicode="N" glyph-name="N" horiz-adv-x="446" d="M421 674Q411 673 397 672T381 665Q373 654 372 642T370 620Q370 613 371 578T376 489T382 370T389 236T396 102T403 -17H354L144 522L133 110Q133 98 134 86T140 62T155 43T184 32V4L24 15V43Q41 45 51
51T67 69Q71 80 72 98T74 122L85 586Q85 597 83 604T74 618Q67 619 60 619T47 620Q43 620 41 620T33 619V648L186 659L344 248L333 608Q333 613 332 631T325 660Q323 665 315 673T283 685V714L421 703V674Z" />
<glyph unicode="O" glyph-name="O" horiz-adv-x="446" d="M421 371Q421 321 412 270T384 161Q364 99 334 59T266 2Q252 -4 239 -7T211 -11Q178 -11 151 3T99 46Q78 70 65 98T40 161Q36 174 33 200T29 256T26 317T25 371Q25 413 30 451T49 530Q55 546 62 566T78
607T97 646T119 679Q144 707 170 718T223 729Q258 729 283 714T327 679Q339 665 350 645T370 604T386 563T397 531Q411 488 416 449T421 371ZM211 638Q182 638 166 604T144 514Q140 478 140 438T140 357Q140 332 140 300T138 239T137 187T136 157Q136 151 137 134T143
97Q149 69 162 51T199 33Q224 33 236 54T254 97Q264 135 269 173T278 245T281 308T282 357Q282 370 282 390T282 432T280 475T277 514Q275 535 271 557T259 597T239 626T211 638Z" />
<glyph unicode="P" glyph-name="P" horiz-adv-x="435" d="M197 719Q204 720 211 720T226 720Q266 720 300 707T358 669T396 610T410 535Q410 493 396 462T351 404Q323 381 287 371T213 361H186L209 75Q211 56 219 43T251 28V0H92V28Q111 32 123 41T135 68Q135
71 131 100T121 177T107 283T91 403T74 524T60 630Q59 637 58 645T52 663Q49 665 45 665Q37 665 36 665T24 664V694L197 719ZM185 392H196Q215 392 233 399T263 423Q283 452 290 481T297 539Q297 589 266 642Q254 662 240 669T206 676Q186 676 179 665T173 635L185
392Z" />
<glyph unicode="Q" glyph-name="Q" horiz-adv-x="455" d="M224 89Q239 89 248 94T263 107T269 124T271 142Q271 152 270 163T263 182T248 195T223 201Q174 201 174 143Q174 121 188 105T224 89ZM270 70Q249 59 224 59Q163 59 118 109Q110 118 102 133T86 167T73
202T63 232Q54 258 47 287T35 346T28 400T25 445Q25 487 29 528T46 608Q53 628 66 650T105 692Q112 697 129 707T167 726Q179 732 197 734T236 736Q270 736 304 721T366 661Q373 648 380 633T392 602T402 574T409 552Q416 531 420 501T426 443T429 394T430 372Q430
324 425 289T409 220Q403 201 382 173T331 116Q337 90 343 68T356 23Q361 17 366 12T380 7Q391 7 394 18T398 40V96H421Q422 84 422 75T422 60Q422 39 419 20T408 -16T386 -41T350 -51Q281 -51 270 70ZM160 188Q188 230 227 230Q262 230 287 193Q290 211 291 228T294
263Q296 297 299 328T302 397Q302 419 303 447T305 504T307 556T308 596Q308 608 308 621T305 644Q297 675 280 684T248 694Q229 694 209 685T180 644Q163 578 157 511T151 378Q151 322 153 272T160 188Z" />
<glyph unicode="R" glyph-name="R" horiz-adv-x="477" d="M275 519Q275 548 267 571T248 611Q230 639 192 639Q176 639 166 631T156 601V392H166Q186 392 207 398T242 421Q275 464 275 519ZM454 221Q456 211 456 191Q456 161 452 133T438 84T410 49T364 36Q337
36 317 49T285 85Q275 103 270 134T264 228Q264 243 264 261T261 298T254 332T243 359Q232 376 209 381T167 387L178 88Q179 70 187 58T220 43V14H25V43Q45 45 56 57T68 88L79 627Q80 647 71 659T40 673V702L203 691Q241 689 276 683T341 659Q369 643 386 615T404
540Q404 504 390 479T353 437T302 410T244 395Q276 387 301 374T344 335Q359 312 366 284T379 221Q380 214 380 204T381 184T382 163T383 146Q384 128 388 108T402 88Q416 88 423 107Q428 120 431 147T434 197Q434 202 434 210T432 223L454 221Z" />
<glyph unicode="S" glyph-name="S" horiz-adv-x="371" d="M236 402Q261 376 284 348T321 296Q338 267 345 238T352 176Q352 140 343 110T311 52Q293 30 270 18T212 6Q197 6 180 11T148 23T119 36T99 43Q88 43 79 38Q76 28 73 21T67 1L25 2L36 235L74 233Q80 204
89 170T115 107T155 59T215 39Q239 39 252 48T272 70T279 95T280 112Q280 136 272 157T247 203Q234 223 217 242T181 281Q168 295 153 311T125 342T100 373T81 400Q72 416 67 435T57 477Q54 499 52 515T50 558Q50 562 51 574T56 602T67 636T88 671Q104 691 126
705T188 720Q200 720 214 715T242 705T266 694T281 689Q290 689 290 697V718Q290 723 290 727T292 735L347 734L336 549L300 551Q298 565 294 579T286 600Q278 611 272 620T257 639Q242 663 225 676T181 689Q146 689 134 670T121 622Q121 595 131 565T158 507Q173
480 193 453T236 402Z" />
<glyph unicode="T" glyph-name="T" horiz-adv-x="427" d="M394 443H367Q363 467 358 494T344 546T325 589T302 613L272 620L284 80Q284 66 286 54T292 38Q299 26 309 23T328 19V-20L115 -7V31Q126 31 132 31T144 30Q149 30 155 30T164 33Q170 42 171 55T172 80L160
633Q146 628 132 618T103 584Q94 567 88 556T77 535T71 516T65 492H25L43 709L402 671L394 443Z" />
<glyph unicode="U" glyph-name="U" horiz-adv-x="477" d="M364 552Q365 568 363 582T353 609Q334 636 315 640V669L452 647V618Q442 618 431 615T414 609Q409 601 407 584T403 552L392 173Q392 170 392 155T387 120T376 77T354 38Q330 9 295 1T227 -7Q138 -7 103
35T67 161V628Q67 639 63 651T44 669Q39 667 34 666T25 663V692L219 714V685Q214 685 205 678T187 663Q182 655 181 646T179 628V165Q179 160 179 149T180 125T183 98T190 74Q201 48 221 40T262 31Q284 31 304 39T338 74Q344 86 347 102T351 132T353 156T353 167L364
552Z" />
<glyph unicode="V" glyph-name="V" horiz-adv-x="456" d="M177 -8L78 537Q76 548 73 558T63 579Q58 584 49 587T25 592V622L208 646V616Q196 616 185 612T174 592Q174 587 174 582T176 569L239 220L331 602Q333 610 335 617T337 627Q337 647 325 655T292 666V695L431
670V642Q408 637 397 618T381 577L236 3L177 -8Z" />
<glyph unicode="W" glyph-name="W" horiz-adv-x="549" d="M524 710Q500 704 491 683T480 638L430 -14H355L278 421L170 22H135L62 591Q60 610 53 626T25 648V677L165 701V672Q145 670 138 662T130 640L178 226L254 509L248 545Q245 565 235 574T204 587V614H362V587Q328
584 328 558Q328 557 328 555T329 548Q327 539 325 531T321 515L397 197L422 637Q422 642 423 650T424 662Q424 685 414 702T374 722V750L524 738V710Z" />
<glyph unicode="X" glyph-name="X" horiz-adv-x="469" d="M444 52L245 27V55Q259 56 268 61T277 79Q277 86 275 93T269 109L207 272L160 79Q158 69 154 55T150 39Q150 30 153 26T160 16Q165 13 173 6T188 -6V-33L37 -21V5Q69 8 91 27T124 85L188 320L90 583Q84
599 70 607T26 618L25 646L222 671V642Q211 641 203 638T194 624Q194 619 196 613T200 600L254 457L319 635Q321 642 323 649T326 661Q326 669 325 676T322 688Q317 696 308 698T284 704V732L428 720V692H425Q398 692 382 676T357 636L272 410L377 134Q381 124
385 113T395 93T405 79T415 73Q421 73 426 76T444 79V52Z" />
<glyph unicode="Y" glyph-name="Y" horiz-adv-x="481" d="M456 696V668Q436 666 421 647T395 595L297 276V53Q297 30 308 20T341 8V-20H140V8Q159 9 170 17Q178 22 180 32T184 53L197 284L76 597Q72 606 67 617T58 633Q53 634 49 634T41 634Q36 634 32 634T25
631V659L229 671L228 644Q214 643 201 638T188 616Q188 608 189 602T193 588L277 333L361 602Q363 608 364 615T365 630Q365 653 355 666T321 680V709L456 696Z" />
<glyph unicode="Z" glyph-name="Z" horiz-adv-x="410" d="M385 233L348 27L25 -22V13L243 640Q237 641 230 641T221 641Q193 641 168 633T123 605Q101 582 83 552T56 479H29L47 669L366 731V708L113 57Q118 55 126 55T136 55Q171 55 205 67T270 103T322 159T353 233H385Z" />
<glyph unicode="[" glyph-name="bracketleft" horiz-adv-x="308" d="M75 -125L65 788L299 798V747L151 737L161 -64L299 -54V-105L75 -125Z" />
<glyph unicode="\" glyph-name="backslash" horiz-adv-x="328" d="M75 789L305 -92L242 -112L10 769L75 789Z" />
<glyph unicode="]" glyph-name="bracketright" horiz-adv-x="308" d="M232 788V-95L8 -115V-74L166 -54L146 737L8 747V798L232 788Z" />
<glyph unicode="^" glyph-name="asciicircum" horiz-adv-x="616" d="M346 786L507 590L431 570L316 709L182 570L105 588L283 784L346 786Z" />
<glyph unicode="_" glyph-name="underscore" horiz-adv-x="500" d="M500 -101V-178H0V-101H500Z" />
<glyph unicode="`" glyph-name="grave" horiz-adv-x="265" d="M93 790L205 669L135 593L46 751L93 790Z" />
<glyph unicode="a" glyph-name="a" horiz-adv-x="486" d="M255 245L199 511L150 253L255 245ZM461 22L261 13V41Q297 44 297 70Q297 91 294 103L263 208L141 215L116 100Q114 91 114 86T113 73Q113 49 125 39T160 27V0L25 7V34Q39 34 48 41T64 59T73 83T80 108L207
712H265L402 118Q407 94 419 73T458 50L461 22Z" />
<glyph unicode="b" glyph-name="b" horiz-adv-x="433" d="M275 249Q275 276 273 287T265 309Q249 339 223 350T168 361L159 79Q158 65 166 49T194 32Q213 32 226 45T248 78Q255 94 260 118T268 168T273 216T275 249ZM271 523Q271 548 270 575T263 619Q255 644
239 655T202 666Q185 666 179 656T173 633L168 390H178Q209 390 227 403T255 436T268 479T271 523ZM408 224Q408 214 406 193T396 146T374 94T335 48Q317 33 296 23T253 7T213 -1T180 -3Q163 -3 148 -3T118 -1T86 2T46 7V48Q85 48 83 77L63 620Q62 641 57 652T26
668L25 698L206 697Q221 697 240 696T279 691T317 682T347 670Q379 643 392 611T405 537Q405 480 369 437T246 377Q331 362 369 324T408 224Z" />
<glyph unicode="c" glyph-name="c" horiz-adv-x="391" d="M298 458Q297 544 283 592T238 640Q232 640 223 637T203 625T181 600T160 559Q153 529 149 491T143 418T139 358T138 326Q138 304 139 275T144 214T154 155T172 106Q180 83 198 62T242 33Q259 33 277 41T311
76Q317 85 321 100T326 125Q326 132 326 143T320 173L353 180Q358 154 358 144T359 128Q359 122 355 97T331 43Q312 15 286 4T230 -8Q186 -8 148 14T77 89Q63 111 53 144T37 212T28 278T25 327Q25 385 34 445T72 563Q88 596 106 616T145 649T185 665T227 670Q253
670 271 661T300 643L315 639L319 706L367 699L344 458H298Z" />
<glyph unicode="d" glyph-name="d" horiz-adv-x="448" d="M416 330Q414 298 410 261T399 189T382 123T358 75Q337 48 308 31T247 5T185 -7T133 -11Q122 -11 114 -11T98 -10T81 -9T56 -8V33Q97 33 95 66L62 579Q61 593 55 602T23 617V661Q61 664 93 666T164 668Q169
668 192 666T244 659T304 643T353 615Q385 588 401 550Q407 537 411 525T417 499T421 469T423 431Q423 429 423 419T421 393T419 361T416 330ZM283 584Q280 593 274 599T261 608T249 613T242 615Q213 618 186 618Q165 619 157 605T149 567L160 118Q160 116 161
103T165 84Q170 73 178 71T194 69Q207 69 221 69T243 70Q252 73 258 83T268 106T274 132T276 154L288 526Q289 546 287 561T283 584Z" />
<glyph unicode="e" glyph-name="e" horiz-adv-x="398" d="M334 543Q332 554 331 567T324 593Q316 604 311 613T298 630Q284 646 265 656T219 667Q195 667 190 658T183 622L175 387Q196 390 210 406T239 443Q242 449 246 459T251 477H280L287 267H257Q257 286 247
300Q244 304 239 310T229 322T219 333T211 340Q203 345 193 349T173 355L163 98Q162 78 173 70T206 62Q229 62 245 70T280 102Q289 114 295 122T311 150Q316 160 317 170T319 194H353L365 28L39 17V58Q59 61 68 70T77 102L64 636Q64 640 63 647T59 662T47 674T25
681V711L373 700L364 543H334Z" />
<glyph unicode="f" glyph-name="f" horiz-adv-x="398" d="M331 494Q329 506 325 522T318 547Q311 569 304 582T287 610Q271 627 254 637T222 647Q211 645 200 644T183 635Q178 628 177 615T176 597L167 373Q184 374 204 381T239 406Q240 408 249 419T267 453H296L284
250H256Q254 264 252 277T241 304Q227 323 209 331T167 342L156 78Q155 55 167 42T198 21V-6L25 9V38Q53 42 61 53T69 78L64 615Q62 626 62 630T60 639Q56 652 47 656T27 663V691L373 674L358 494H331Z" />
<glyph unicode="g" glyph-name="g" horiz-adv-x="461" d="M433 308Q424 306 416 305T398 303Q395 299 393 289T389 248T385 156T378 -7H339L338 82Q309 45 282 29T219 13Q132 13 86 99Q69 131 57 167T38 241T28 314T25 381Q25 436 31 489T62 582Q88 624 125 652T218
680Q235 680 251 675T282 661L318 641L309 717L358 722L372 469H339Q332 511 322 544T298 601T263 637T214 650Q193 650 180 630T158 581T147 518T144 458Q144 444 144 429T144 400T145 377T146 366Q146 334 147 298T152 225T162 154T176 92Q182 71 193 58T223
45Q254 45 267 74Q278 97 281 116T287 158L293 268Q291 279 289 295T283 314Q279 315 273 315T261 316Q259 316 256 316T247 315L249 356L436 346L433 308Z" />
<glyph unicode="h" glyph-name="h" horiz-adv-x="481" d="M265 15V45Q288 47 295 57T303 83L301 310L176 288V48Q176 40 178 29T184 15Q190 10 200 4T216 -3V-32L47 -40V-10Q64 -1 75 10T85 48L62 585Q62 594 60 604T54 623T43 638T25 645V675L211 664V634Q188
632 181 619T174 585L176 327L301 349L297 643Q297 651 296 657T289 669Q276 677 260 677V707L456 720V690Q433 686 428 672T421 643L396 79Q395 62 403 49T432 34V2L265 15Z" />
<glyph unicode="i" glyph-name="i" horiz-adv-x="267" d="M25 8V43Q53 47 62 57T76 79L87 595Q88 624 80 638T49 661V690L242 674V644Q225 640 214 632T200 605L171 95Q171 95 171 91T172 81T174 70T178 62Q184 57 194 48T213 37V8H25Z" />
<glyph unicode="j" glyph-name="j" horiz-adv-x="413" d="M388 671Q370 670 361 662T350 629L339 188Q338 160 337 141T333 107T326 80T314 55Q303 38 292 24T260 0Q243 -7 225 -10T187 -14Q166 -14 130 -4T57 42Q46 52 40 65T31 89T26 109T25 117Q25 159 45 175T92
190Q127 188 140 172T154 131Q154 105 138 91T97 76Q90 76 83 80Q83 69 100 57T165 44Q187 44 202 50T229 72Q241 88 246 113T250 166L239 655Q237 663 234 668T214 680Q208 682 202 683T190 685V726L388 712V671Z" />
<glyph unicode="k" glyph-name="k" horiz-adv-x="476" d="M258 -22V5Q290 13 290 36Q290 41 289 49T285 65L222 378L161 280L160 94Q160 89 160 76T166 54Q169 46 177 42T197 36V7L35 -5V23Q57 27 64 38T71 70L62 656Q62 660 61 667T56 682T45 695T25 702V732L211
720V690Q203 685 197 682T184 673Q179 669 177 655T174 631L163 343L309 589Q314 597 315 603T317 617Q317 625 311 629T295 633Q289 633 284 632T272 630L270 659L427 670L424 639Q420 639 414 639T401 637Q385 635 374 624T351 593L270 457L399 65Q404 55 409
45T418 26Q434 19 440 19Q441 19 444 19T451 20L448 -9L258 -22Z" />
<glyph unicode="l" glyph-name="l" horiz-adv-x="372" d="M347 20L25 3V32Q48 37 55 48T63 78L72 626Q72 638 65 654T33 674V703L232 688L230 658Q216 658 208 652T194 638T186 619T184 599L155 84Q156 66 166 59T190 51Q213 51 234 62T269 95Q282 122 290 149T303
204L331 210L347 20Z" />
<glyph unicode="m" glyph-name="m" horiz-adv-x="520" d="M495 655Q493 654 491 654Q485 654 479 656T470 659Q467 659 466 658T464 655Q462 651 460 645T457 633T456 623T455 617L443 60Q442 11 483 8V-21L296 -7V22Q326 26 338 37Q340 44 344 53T348 73L360
675L278 325H237L117 656L146 115Q147 102 149 85T157 57Q162 49 172 44T196 36V8H45V37Q63 40 73 48T87 66T92 87T93 106L66 638Q64 647 64 653T59 665T48 673T25 678V708L195 720L270 471L331 710L495 698V655Z" />
<glyph unicode="n" glyph-name="n" horiz-adv-x="468" d="M443 677Q435 676 422 675T403 668Q395 660 394 646T392 620L388 61H338L136 533L160 96Q167 55 181 43T211 31V4L52 -2V23Q69 25 78 34T93 55Q98 66 100 77T101 108L77 597Q76 611 75 626T66 650Q55 654
41 654Q36 654 33 654T25 653V680L192 670L348 257L355 620Q355 633 354 646T347 671Q338 677 328 679T305 684V712L443 705V677Z" />
<glyph unicode="o" glyph-name="o" horiz-adv-x="439" d="M308 397Q308 446 309 484T306 558Q302 583 297 606T284 647T266 674T240 685Q214 685 194 654T165 558Q160 524 157 484T153 404T150 330T149 272Q149 235 151 204T161 138Q164 124 169 110T181 85T197
67T217 59Q260 59 279 138Q296 204 301 267T308 397ZM414 379Q414 347 408 290T379 162Q354 86 309 43T209 0Q178 0 151 15T101 54T62 109T36 173Q32 187 30 211T26 265T25 325T25 383Q25 393 27 416T33 464T42 514T52 553Q66 592 82 624T117 680T162 717T221 730Q252
730 279 717T334 678Q358 655 372 630T397 563Q410 512 412 469T414 379Z" />
<glyph unicode="p" glyph-name="p" horiz-adv-x="431" d="M287 549Q287 566 284 583T269 620Q259 635 243 642T197 650Q174 650 167 638T159 608V366H175Q204 366 221 374T250 396Q270 424 278 467T287 549ZM406 547Q406 516 397 487T375 433T348 393T324 372Q295
352 264 348T197 343H168L159 55Q161 32 174 22T206 10V-19L50 -13V15Q79 17 86 27T93 55L62 616Q61 624 59 635T54 649Q49 651 43 652T25 656V685Q50 686 82 687T143 689T194 690T224 691Q277 691 312 683T368 656T397 611T406 547Z" />
<glyph unicode="q" glyph-name="q" horiz-adv-x="453" d="M269 138Q269 165 256 181T219 198Q200 198 186 180T172 139Q172 122 183 104T222 86Q249 86 259 99T269 138ZM258 640Q246 673 232 682T213 691Q192 688 174 674T147 627Q140 595 137 557T132 483T130
417T130 370Q130 366 132 342T139 288T148 229T158 184Q169 201 185 213T225 226Q247 226 260 216T285 189Q287 201 289 223T292 267T295 309T296 334Q296 433 289 505T258 640ZM428 368Q428 349 428 332T425 298T419 260T407 216Q396 183 378 159T329 112L354
16Q364 1 377 1Q387 1 390 9T396 34Q398 51 398 65T398 89H425Q426 78 426 70T426 54Q426 35 422 15T409 -21T385 -47T348 -57Q315 -57 294 -26T268 66Q257 61 247 58T222 55Q124 55 71 138Q57 175 48 204T34 263T27 325T25 400Q25 453 33 498T59 598Q73 623 86
644T116 687Q123 693 131 701T153 715T186 727T234 732Q272 732 305 716T364 658Q389 615 405 563Q419 513 423 468T428 368Z" />
<glyph unicode="r" glyph-name="r" horiz-adv-x="460" d="M241 421Q253 432 261 450T274 488T281 528T284 562Q284 582 280 596T268 623Q259 640 248 647T216 655Q196 655 188 645T179 616L167 406L201 403Q218 403 225 408T241 421ZM433 178Q434 174 434 165T435
148Q435 77 411 47T343 17Q314 17 296 29T264 65Q259 76 255 86T248 106T244 129T243 159L248 257Q248 259 251 273T254 307Q254 321 252 335T242 365Q231 381 211 386T165 391L155 132Q154 115 164 102T197 86V57H37V86Q51 88 60 93T73 105T79 119T80 132L62 618Q62
634 25 639V668Q56 674 80 679T127 687T172 693T222 696Q246 696 263 695T293 691T318 684T340 673Q369 656 379 632T389 581Q389 570 387 555T383 529Q380 511 373 490T350 450T309 416T243 395Q282 386 304 372T343 335Q354 318 358 298T362 258Q362 239 361
225T358 198T355 170T354 137Q354 68 382 68Q389 68 394 74T402 87Q407 101 409 119T412 152Q412 157 412 165T411 179L433 178Z" />
<glyph unicode="s" glyph-name="s" horiz-adv-x="393" d="M368 180Q368 136 357 106T328 56Q320 49 310 41T285 26T253 15T211 10Q197 10 181 16T149 28T120 41T100 47Q96 47 92 46T82 41Q83 38 83 34T83 26Q83 12 81 4L38 6L25 239L62 236Q76 183 93 146T130
86T171 53T216 43Q242 43 264 57T297 112Q299 122 299 133Q299 148 293 167T264 206Q256 213 233 237T164 306Q156 313 146 324T125 348T103 375T84 404Q74 422 66 441T52 477Q47 500 45 519T42 562Q42 566 43 578T48 607T60 641T81 675Q102 701 129 712T195 724Q205
724 218 719T245 708T270 697T284 692Q286 699 286 712T286 736L340 742V530L305 532Q299 565 289 591T259 643Q249 660 231 676T189 692Q174 692 160 690T136 682T120 663T114 631Q114 607 121 584T139 542T160 508T176 485Q194 455 216 433T260 391T302 349T338
299Q352 276 360 247T368 180Z" />
<glyph unicode="t" glyph-name="t" horiz-adv-x="422" d="M385 489H358Q354 511 349 534T336 576T318 610T296 630L263 634L262 93Q262 85 263 72T269 50Q275 39 284 36T305 31V-7L109 -17V21Q115 22 121 22T134 22Q148 27 155 40T165 71L146 617Q129 615 119
611T100 600Q86 580 78 546T68 478L35 471L25 671L397 706L385 489Z" />
<glyph unicode="u" glyph-name="u" horiz-adv-x="451" d="M426 661Q417 656 405 652T387 642Q381 632 380 617T376 584L398 164Q400 120 390 85T361 28Q338 2 307 -7T234 -16Q187 -16 157 -5T108 27T81 80T73 152L67 586Q67 606 46 617L25 620V650L221 642V613Q198
601 189 587T179 556L185 157Q185 132 187 107T196 66Q205 45 222 34T269 23Q292 23 312 32T345 66Q355 86 358 110T360 158L338 584Q337 596 336 612T327 642Q318 650 309 654T288 663V693L426 690V661Z" />
<glyph unicode="v" glyph-name="v" horiz-adv-x="457" d="M432 592Q411 588 400 571T384 528L278 -33H214L78 560Q75 572 72 583T63 601Q56 607 46 609T25 614V643L208 668V639Q193 639 184 634T174 614Q174 609 174 603T176 592L276 185L329 516Q330 521 330
529T331 541Q331 575 287 579V609L432 621V592Z" />
<glyph unicode="w" glyph-name="w" horiz-adv-x="521" d="M496 693Q484 690 474 686T459 673Q453 664 448 651T441 621L424 -20L349 -11L252 401L157 -21L119 -16L61 593Q60 604 59 617T55 643T44 666T25 679V707L170 681V652Q133 649 135 620L169 202L224 463L228
511Q230 525 226 533T209 549Q204 552 197 553T182 554V583L335 582V553Q320 551 309 545T295 529Q292 517 291 506T288 485L371 177L375 611Q375 620 374 630T367 648T352 663T325 671V699L496 721V693Z" />
<glyph unicode="x" glyph-name="x" horiz-adv-x="496" d="M272 0V26Q286 27 295 33T305 50Q305 57 303 64T297 80L222 297L147 138Q145 128 142 118T137 99Q137 84 147 75Q155 68 163 62T176 51V25L25 37V64Q45 66 58 73T81 91T97 116T111 145L204 346L104 612Q99
626 86 635T42 647L39 675L236 700V672Q208 670 208 653Q208 647 210 641T214 630L272 450L333 583Q335 588 337 596T340 609Q339 626 337 633T326 644Q321 646 314 648T299 652V680L457 701V673Q434 673 417 661T385 618L291 404L405 105Q412 88 419 74T438 57Q446
56 454 53T471 50V24L272 0Z" />
<glyph unicode="y" glyph-name="y" horiz-adv-x="462" d="M437 610Q423 608 414 599T397 575T385 545T374 513L284 232L277 34Q276 12 287 2T321 -11V-39L146 -50V-22Q161 -21 170 -15T183 0T189 18T190 34L184 240L76 631Q74 640 70 649T57 666Q55 666 51 666T43
667Q39 667 35 667T25 665V693L217 686L215 657Q200 657 188 651T175 631Q175 623 176 617T180 602L264 289L336 520Q339 529 340 537T342 547Q342 572 334 584T300 598V626L437 637V610Z" />
<glyph unicode="z" glyph-name="z" horiz-adv-x="446" d="M394 -10L25 19V55L323 625Q311 626 297 627T269 630T242 631T223 632Q194 632 174 630T138 620Q119 591 114 562T106 504H79L74 693L421 685V662L113 99Q128 98 148 96T187 92T224 89T253 87Q275 87 288
90T310 105Q321 121 335 149T361 200H393L394 -10Z" />
<glyph unicode="{" glyph-name="braceleft" horiz-adv-x="415" d="M355 762Q341 762 329 762T307 760Q290 757 279 746Q262 727 254 701T246 643V486Q246 465 246 442T243 398T238 361T229 336Q200 292 147 280Q176 275 197 259T229 224Q235 215 238 198T243 160T245
117T246 74V7Q246 -19 253 -46T279 -94Q292 -108 315 -114T365 -120L385 -158Q350 -158 326 -154T291 -148Q238 -135 211 -112Q186 -90 178 -53T170 20V118Q170 142 168 167T153 212T116 247T47 264L37 297Q84 301 110 313T150 345T167 390T170 443V631Q170 671
180 709T219 769Q245 789 284 794T365 800L355 762Z" />
<glyph unicode="|" glyph-name="bar" horiz-adv-x="500" d="M294 794V-235H207V794H294Z" />
<glyph unicode="}" glyph-name="braceright" horiz-adv-x="415" d="M51 800Q67 800 86 799T126 795T164 786T197 769Q226 746 236 709T246 631V443Q246 434 246 421T249 392T257 363T272 337Q286 321 311 311T379 297L369 264Q311 259 283 236Q270 225 263 209T252
176T247 144T246 118V20Q246 -15 238 -52T205 -112Q190 -125 170 -133T125 -148Q81 -158 31 -158L51 -120Q77 -119 100 -114T137 -94Q157 -71 163 -44T170 7V74Q170 84 170 105T172 149T177 193T187 224Q198 241 217 257T269 280Q218 291 187 336Q181 344 178 361T173
399T171 444T170 486V643Q170 669 164 696T137 746Q125 759 106 760T61 762L51 800Z" />
<glyph unicode="~" glyph-name="asciitilde" horiz-adv-x="662" d="M34 249Q46 338 89 389T206 441Q226 441 246 438T286 426Q318 412 344 389T395 344T442 306T489 290Q500 290 520 299T551 322Q559 331 566 347T580 381T590 412T596 430L624 428Q621 392 615
364T597 309Q576 259 535 232T446 204Q403 204 356 227T266 282Q241 301 223 313T192 332Q176 340 167 341T150 342Q133 342 120 336T94 315Q86 305 79 287T63 248L34 249Z" />
</font>
</defs>
</svg>
