<?xml version="1.0" standalone="no"?>
<!DOCTYPE svg PUBLIC "-//W3C//DTD SVG 1.1//EN" "http://www.w3.org/Graphics/SVG/1.1/DTD/svg11.dtd" >
<svg xmlns="http://www.w3.org/2000/svg">
<metadata>
This is a custom SVG webfont generated by Font Squirrel.
Copyright   : Free for personal use For commercial licensing visit wwwlaurenashpolecom
Foundry     : PYRS Fontlab Ltd  Made with FontLab
</metadata>
<defs>
<font id="HorseshoesRegular" horiz-adv-x="913" >
<font-face units-per-em="2048" ascent="1638" descent="-410" />
<missing-glyph horiz-adv-x="1116" />
<glyph unicode=" "  horiz-adv-x="1116" />
<glyph unicode="&#x09;" horiz-adv-x="1116" />
<glyph unicode="&#xa0;" horiz-adv-x="1116" />
<glyph unicode="!" horiz-adv-x="538" d="M143 -86q0 57 42 98t100 41q59 0 99 -40t40 -99q0 -61 -42 -101t-97 -40q-57 0 -99.5 44t-42.5 97zM182 1462q0 154 146 154q55 0 91 -33t45 -65.5t9 -63.5q0 -176 -35 -342q-115 -522 -114 -932l-93 -41q12 156 13 328q0 299 -29 633z" />
<glyph unicode="&#x22;" horiz-adv-x="419" d="M59 1550l115 31l6 -315l-104 -29zM252 1575l121 -10l-13 -332l-88 27z" />
<glyph unicode="#" horiz-adv-x="1337" d="M137 410l4 116h189l67 348h-258l13 121h274l86 432h121l-86 -430l297 -2l110 504h127l-108 -504h272l-12 -121h-287l-69 -348h243l-10 -116h-262l-86 -410h-125l90 410l-307 2l-96 -465l-121 -2l100 465h-166zM449 528l303 -2l69 348l-303 3z" />
<glyph unicode="$" horiz-adv-x="800" d="M43 244q0 63 34 106t93 43q53 0 85 -34.5t32 -88.5q0 -117 -127 -116q23 -39 71 -72t103 -37l26 594q-113 96 -217 256q-70 109 -69 248q0 319 313 391l2 119l88 -4l-4 -111q109 -8 192 -78.5t83 -165.5q0 -53 -32 -90t-85 -37q-49 0 -82 34t-33 79q0 96 109 119 q-49 59 -152 57l-16 -639q10 -6 54 -34.5t56.5 -37t41 -30t44 -37.5t27.5 -35q76 -115 76 -252q0 -336 -338 -407l-12 -240l-87 8l11 230q-113 8 -195 75q-92 76 -92 187zM205 1235q0 -80 24 -139q2 -6 17.5 -36t22.5 -42t22.5 -39t27 -40t25.5 -28.5t27 -23.5l14 565 q-102 -10 -141 -74.5t-39 -142.5zM424 53q190 66 190 244q0 82 -42 145.5t-126 147.5z" />
<glyph unicode="%" horiz-adv-x="1529" d="M84 1108q0 104 22.5 198.5t89 170t169.5 75.5q104 0 170.5 -110.5t66.5 -280.5q0 -215 -74.5 -331.5t-205.5 -112.5q-104 2 -171 116.5t-67 274.5zM225 -147l965 1724l90 -27l-967 -1722zM233 1065q0 -72 13 -170q16 -117 78 -125q33 0 65 55q53 92 53 285q0 240 -18 299 q-8 25 -12 35t-18.5 22.5t-37.5 12.5q-68 0 -95.5 -123t-27.5 -291zM928 315q0 143 67.5 265t167.5 122q127 0 200 -129t73 -311q0 -174 -69 -273.5t-163 -99.5q-143 0 -209.5 128t-66.5 298zM1081 264q0 -55 19.5 -142t42.5 -124q31 -47 61 -47q35 0 66 63q29 70 28 222 q0 82 -15 184t-42 149q-31 55 -70 56q-16 0 -25 -10.5t-19.5 -33t-14.5 -28.5q-37 -72 -31 -289z" />
<glyph unicode="&#x26;" horiz-adv-x="1126" d="M45 389q0 197 72 320q80 137 209 229q-72 209 -72 332q0 147 80 241q86 104 227 105q125 0 195.5 -75t70.5 -177q0 -193 -295 -383l148 -406q61 -145 108 -223q27 82 54 256q14 98 20 223q0 29 -37 47.5t-88 16.5v68l363 -62v-67q-23 0 -51.5 8t-42.5 8q-27 0 -45 -68 q-29 -92 -39 -151q-35 -219 -82 -398q66 -115 131 -114q76 0 76 98q0 66 -46 123h66q43 -45 43 -123q0 -59 -26.5 -129t-79.5 -98q-29 -12 -82 -13q-33 0 -123 41q-14 8 -30.5 34t-20.5 30q-80 -119 -187 -166q-49 -20 -125 -20q-137 0 -282 167q-109 133 -109 326zM268 645 q0 -121 19 -217q8 -43 51 -195q14 -53 51 -108q72 -109 164 -109q14 2 43 18.5t39 31.5q23 29 55 86q-197 330 -323 694q-39 -33 -58 -74q-41 -82 -41 -127zM459 1372q2 -139 47 -303q113 86 149 133q74 94 76 172q0 33 -49 119q-33 45 -117 45q-106 0 -106 -166z" />
<glyph unicode="'" horiz-adv-x="299" d="M82 1575l127 -10l-12 -312l-95 27z" />
<glyph unicode="(" horiz-adv-x="718" d="M104 625q4 352 111 579q119 258 322 432q12 -10 35.5 -30.5t35.5 -30.5q-168 -178 -231 -356q-96 -272 -96 -588q0 -262 84 -461q102 -244 249 -391l-49 -62q-111 88 -188.5 194.5t-155.5 252.5q-117 215 -117 461z" />
<glyph unicode=")" horiz-adv-x="694" d="M86 -221q172 180 250 391q84 225 84 461q0 334 -96 588q-39 104 -91.5 181t-140.5 175l72 61q186 -162 321 -432q111 -223 111 -579q0 -236 -117 -461q-154 -293 -344 -447z" />
<glyph unicode="*" horiz-adv-x="595" d="M49 1243l4 66l140 6l-107 123l49 32l125 -116l82 157l55 -14l-67 -166l231 6v-61l-229 -12l151 -154l-65 -35l-133 146l-84 -170l-60 34l76 166z" />
<glyph unicode="+" horiz-adv-x="1011" d="M86 670l363 6l-7 399l133 12l-4 -409l344 2l-6 -119l-336 -2l-2 -350l-120 -4v348l-363 -2z" />
<glyph unicode="," horiz-adv-x="401" d="M86 -184q51 127 51 219q0 76 -14 180l186 -31q-8 -176 -22 -256q-14 -102 -101 -217z" />
<glyph unicode="-" horiz-adv-x="1024" d="M111 719v143l802 -8v-143z" />
<glyph unicode="." horiz-adv-x="378" d="M57 66q0 55 40 98t91 43q59 0 100.5 -38t41.5 -103q0 -49 -41 -89t-101 -40q-45 0 -88 41t-43 88z" />
<glyph unicode="/" horiz-adv-x="671" d="M35 -188l471 1804l133 -41l-475 -1804z" />
<glyph unicode="0" d="M51 780q0 174 49 328q31 92 54.5 147.5t65.5 124t101.5 101t135.5 32.5q119 0 213 -102q80 -109 143 -305q49 -147 49 -326q0 -338 -31 -436q-45 -139 -136 -242.5t-214 -103.5t-213 99.5t-141 252.5q-76 223 -76 430zM336 752q0 -297 57 -533q33 -131 113 -131 q47 0 71.5 34t43.5 97q14 47 14 143q0 80 -1 173.5t-2 142.5t-1 74q0 217 -13 321q-31 254 -137 254q-109 0 -135 -254q-10 -90 -10 -321z" />
<glyph unicode="1" horiz-adv-x="636" d="M51 70v57l115 -2q27 0 35 8q23 27 22 111l27 909q0 45 -27 74q-14 10 -35 8l-112 -8v59q86 12 166 74l145 113h55l-24 -1237q0 -72 20 -105q35 -47 72 -49l76 -4v-60z" />
<glyph unicode="2" horiz-adv-x="819" d="M51 27v100q45 172 68 217q70 137 155 256q27 35 80.5 101.5t91 115.5t52.5 72q57 115 57 233q0 229 -213 230q-66 0 -111 -40t-53 -114q25 12 45 12q43 0 74 -30.5t31 -77.5t-30 -81t-79 -34q-125 0 -125 164q0 121 92.5 200t219.5 79q162 0 263 -86.5t101 -251.5 q0 -59 -83 -175t-148.5 -187t-173.5 -183q-109 -115 -119 -135q-31 -72 -62 -148q53 -6 161 -27.5t126 -21.5q33 0 49.5 3t39 16.5t37.5 44t28 83.5h55l-21 -362z" />
<glyph unicode="3" horiz-adv-x="800" d="M51 199q0 125 102.5 125t102.5 -98.5t-113 -98.5q78 -88 152 -88q31 0 79 30.5t81 80.5q35 47 34 204q0 309 -153 310q-10 0 -26.5 -5.5t-26.5 -5.5q-41 0 -41 39q0 37 39 37q10 0 34.5 -5t36.5 -5q74 0 119 80q68 123 68 288q0 293 -181 293q-125 0 -155 -114q25 4 39 4 q98 0 98 -107q0 -39 -24.5 -71.5t-73.5 -32.5q-59 0 -89 44t-30 105q0 104 86 178q78 63 192 64q152 0 250.5 -92t98.5 -277q0 -72 -32 -155.5t-73 -126.5q-47 -47 -97 -72t-145 -39q291 -70 291 -340q0 -156 -86 -237q-145 -133 -268 -134q-113 0 -188 66q-101 90 -101 156 z" />
<glyph unicode="4" horiz-adv-x="761" d="M51 379v106l408 967h119v-913l131 24v-84l-131 -24v-273q0 -47 26 -76q35 -43 78 -49v-57l-418 23v59q78 16 94 33q18 23 19 75v240zM168 489l209 25v260q0 57 4 131q2 18 8 80t8 96z" />
<glyph unicode="5" horiz-adv-x="784" d="M41 1389h80q6 0 46 -3.5t79 -3.5q236 0 352 43q-2 -18 -6 -100q-20 -84 -137 -104q-61 -12 -187 -13q-14 0 -48 -15t-48 -15q-16 0 -29 2l37 -334q102 78 211 78q160 0 258 -133q49 -66 72 -129q12 -47 12 -144q0 -262 -92 -383q-76 -98 -94 -115q-57 -43 -127 -43 q-131 0 -226.5 76t-95.5 209q0 59 34 104.5t97 45.5q49 0 83 -35t34 -88q0 -113 -129 -113q20 -121 145 -121q55 0 72 27q14 14 47 84q72 164 72 330q0 78 -29 149q-25 41 -53 96q-41 84 -137 84q-102 0 -156 -82q-8 -137 -67 -137q-39 0 -39 41q0 53 32 103z" />
<glyph unicode="6" horiz-adv-x="759" d="M51 909q0 252 58 361q111 201 299 200q82 0 146 -48t64 -136q0 -53 -30 -90q-4 -4 -22.5 -20.5t-33 -26.5t-22.5 -10q-25 0 -82 53q-31 31 -31 78q0 74 92 119q-29 27 -67 26q-102 0 -150 -125q-20 -53 -20 -170q0 -207 41 -360q84 84 172 84q133 0 199 -139 q49 -106 49 -259q-4 -242 -62 -327q-80 -123 -248 -123q-160 0 -245 156q-55 96 -90 436q-17 143 -17 321zM281 424q0 -102 53 -283q16 -57 88 -57q63 0 80 37q25 66 24 227q0 203 -45 340q-23 61 -73 62q-29 0 -66 -25q-6 -6 -55 -94q-2 -66 -3 -115t-2 -65.5t-1 -26.5z " />
<glyph unicode="7" horiz-adv-x="759" d="M51 1104l43 371l615 -76v-78q-78 -168 -115 -254q-74 -172 -94 -260q-53 -217 -54 -496q0 -12 2.5 -88t2.5 -90q0 -168 -127 -168q-109 0 -109 154q0 31 10.5 78t36 130t29.5 101l96 340q76 260 205 479q-297 51 -318 51q-55 -2 -102 -55q-45 -63 -63 -139h-58z" />
<glyph unicode="8" horiz-adv-x="755" d="M51 272q0 141 58 224q82 121 163 186q-70 61 -122 186q-41 100 -41 244q0 145 79 252q84 111 230 111q125 0 201.5 -81t72.5 -220q-4 -133 -34.5 -202t-149.5 -171q104 -90 151 -178q45 -82 46 -279q0 -154 -99 -262q-96 -106 -254 -107q-135 0 -218 83t-83 214zM178 293 q0 -100 43 -174q51 -84 154 -84q88 0 139 60.5t51 133.5q0 164 -57 246q-53 80 -191 172q-55 -35 -100 -137q-39 -96 -39 -217zM242 1214q0 -141 49 -223q49 -76 172 -157q29 29 48 58.5t30.5 53t18.5 59t9 54t4 59.5t5 56q0 49 -5.5 85.5t-21.5 75.5t-51 59.5t-88 20.5 q-170 0 -170 -201z" />
<glyph unicode="9" horiz-adv-x="784" d="M51 1014q-4 168 58 295q76 160 235 159q96 0 143 -12q63 -23 109 -90q121 -190 133 -457q4 -115 4 -149q0 -410 -69 -539q-111 -207 -293 -207q-96 0 -158.5 53.5t-62.5 129.5q0 61 31.5 95t74.5 34q57 0 88 -34t31 -75q0 -78 -88 -119q25 -25 67 -24q100 0 146 125 q12 33 16 219q2 55 0 157.5t-2 126.5q-88 -84 -166 -84q-285 1 -297 396zM260 1178q0 -240 59 -404q23 -59 76 -59q43 0 66 24q12 10 19 39t9 31q0 133 -2 207q-8 150 -20 225q-31 166 -113 166q-94 0 -94 -229z" />
<glyph unicode=":" horiz-adv-x="401" d="M51 217q0 53 37 90t80 37q53 0 90 -35t37 -92q0 -41 -37 -78t-90 -37q-39 0 -78 36t-39 79zM78 963q0 55 40 97t89 42q59 0 100 -37t41 -102q0 -47 -41 -89.5t-100 -42.5q-45 0 -87 42.5t-42 89.5z" />
<glyph unicode=";" horiz-adv-x="401" d="M66 -199q63 141 67 293q0 59 -10 135l219 -26q-12 -166 -43 -262q-45 -135 -125 -230zM78 965q0 57 39 98t92 41q59 0 100 -38t41 -101q0 -47 -41 -90.5t-100 -43.5q-47 0 -89 42.5t-42 91.5z" />
<glyph unicode="&#x3c;" horiz-adv-x="1052" d="M90 649v82l832 393l39 -116l-682 -314l669 -360l-41 -105z" />
<glyph unicode="=" horiz-adv-x="1126" d="M162 416v133l823 29v-175zM162 795v151l823 -12v-152z" />
<glyph unicode="&#x3e;" horiz-adv-x="1052" d="M90 1008l39 116l832 -393v-82l-818 -420l-41 105l670 360z" />
<glyph unicode="?" horiz-adv-x="794" d="M39 1354q0 137 78 198q39 31 116.5 57.5t143.5 26.5q133 0 264 -120q88 -78 88 -199q0 -109 -70 -209q-23 -31 -115.5 -101.5t-129.5 -115.5q-78 -98 -107 -148q-16 -27 -16 -106q0 -109 20 -242q2 -12 10.5 -59t12.5 -74l-94 -41q-63 373 -64 471q0 53 10 72 q66 111 123 217q43 80 150 197q90 102 90 143q0 74 -51 149q-25 37 -68 64t-72 27q-27 0 -81 -14.5t-62 -20.5q-29 -20 -61 -82q133 -4 133 -115q0 -49 -32 -83t-91 -34q-125 1 -125 142zM188 -43q0 57 41 98t102.5 41t101.5 -41t40 -98q0 -63 -42 -103t-99 -40 q-63 0 -103.5 44t-40.5 99z" />
<glyph unicode="@" horiz-adv-x="1564" d="M80 547q0 336 272 561q219 182 520.5 182t450.5 -131q190 -170 190 -428q0 -176 -26 -239q-49 -115 -158 -213q-37 -31 -125 -68q-16 -6 -53 -6q-2 0 -25.5 2t-27.5 2q-164 0 -174 166q-102 -164 -226 -164q-137 0 -200 113q-55 94 -56 237q0 63 25 150q29 90 70 131 q111 109 249 108q45 0 102.5 -20.5t76.5 -38.5q49 -47 59 -113l41 137l111 -36l-105 -437q0 -84 68 -84q86 0 125 68q25 45 51 133q10 33 10 195q0 55 -20 131q-25 90 -56 116q-92 80 -159 113q-94 45 -207 45q-145 0 -226 -33q-340 -143 -411 -340q-49 -135 -49 -268 q0 -272 184 -432q178 -152 453 -152q152 0 257 40t230 128q8 -6 24.5 -19t24.5 -20q-242 -180 -536 -180q-315 0 -504 146q-250 192 -250 518zM567 530q0 -113 54 -186q31 -41 75 -41q27 2 74 35q43 37 74 98q14 31 22 66q14 45 19 69q6 35 6 104.5t-45 162.5q-35 41 -80 41 q-41 0 -76 -37q-80 -82 -115 -242q-8 -31 -8 -70z" />
<glyph unicode="A" horiz-adv-x="985" d="M51 76v55q72 4 113 166l285 1196h118l260 -1288q29 -137 107 -142v-55h-395v55q76 2 75 62q0 45 -6 68l-67 268l-250 -23l-60 -159q-6 -10 -6 -54q0 -88 101 -94v-55h-275zM309 516l217 23l-96 542z" />
<glyph unicode="B" horiz-adv-x="911" d="M45 1384v89q63 -4 186 -13.5t183 -13.5q193 -12 288 -72q119 -74 119 -254q0 -266 -325 -329q193 -29 278.5 -126.5t85.5 -234.5q0 -211 -102 -307q-94 -86 -305 -98q-37 -2 -104.5 -8.5t-122 -10.5t-103.5 -6v86q76 11 76 81v11q-37 618 -76 1112q-2 37 -6 51.5 t-20.5 26.5t-51.5 16zM330 760l24 -578q2 -96 72 -96q150 0 149 320q0 176 -38 245q-64 109 -207 109zM330 819h18q201 0 201 273q0 141 -19 196q-35 96 -143 96q-57 0 -57 -67v-498z" />
<glyph unicode="C" horiz-adv-x="839" d="M51 670q0 264 135 508q111 195 283 194q76 0 141 -55h33l-18 129h108l55 -508h-94q-92 373 -211 373q-84 0 -116 -142q-84 -348 -84 -501q0 -322 41 -451q20 -57 63 -100q49 -51 102 -51q90 0 144 88q27 43 26 79v134h66q0 -152 -4 -183q-8 -55 -47 -98 q-70 -102 -230 -102q-195 0 -313 198q-80 138 -80 488z" />
<glyph unicode="D" horiz-adv-x="937" d="M47 1315v110l287 -24q328 -29 428 -115q41 -35 110 -211q14 -53 15 -151q0 -195 -45 -420q-47 -231 -103 -301q-123 -150 -381 -174l-237 -25v86q79 11 78 79v13l-76 1037q-8 88 -76 96zM352 1212l27 -972q0 -43 14 -80q12 -20 56 -21q63 0 81 4q43 14 56 90 q18 106 51 840q1 20 1 38q0 53 -9 85q-16 53 -80 86t-121 33q-80 -1 -76 -103z" />
<glyph unicode="E" horiz-adv-x="837" d="M51 29v82q74 12 78 92l23 1083q0 41 -15.5 64.5t-62.5 29.5v60l708 22l4 -340h-61q-16 84 -43 115l-55 66q-63 78 -170 77q-33 0 -49.5 -10t-20.5 -26.5t-6 -57.5l-23 -493q74 10 117 65q8 10 49 39q29 20 33 64h61l-22 -429h-61l-3.5 24.5t-8.5 23t-9 17.5t-15.5 24.5 t-19.5 27.5q-49 70 -121 78v-532q0 -84 70 -84q102 0 172 92q12 14 64 80q29 47 51 127h57l-6 -359z" />
<glyph unicode="F" horiz-adv-x="845" d="M49 1319v55l699 51l47 -415h-52q-27 86 -67 141q-45 61 -107 113q-66 55 -143 55q-41 0 -53 -16q-18 -16 -19 -80v-459q70 8 115 65q4 6 49 37q27 16 37 62h57l-49 -416h-57q-4 68 -31 109q-43 66 -121 79v-540q0 -88 86 -94v-58l-354 -22v55q88 48 88 116 q0 147 -3 287.5t-8 248.5t-11 203.5t-11.5 162.5t-10.5 115t-8 72.5t-3 23.5q-17 45 -70 49z" />
<glyph unicode="G" horiz-adv-x="884" d="M51 684q0 350 94 508q121 199 318 199q51 0 121 -54l84 -24l28 180l86 -27l-47 -508h-67q-90 373 -215 373q-104 0 -134 -268q-14 -125 -14 -371q0 -313 53 -506q25 -94 101 -94q59 0 86 58q31 59 30 133q0 61 -26 266q-4 45 -10.5 58.5t-28.5 13.5q-10 0 -27.5 -2.5 t-29.5 -2.5v89l383 26v-88q-61 -10 -74 -27q-16 -29 -14 -67l24 -565h-80l-45 116q-94 -74 -201 -73q-170 0 -272 176q-123 217 -123 481z" />
<glyph unicode="H" horiz-adv-x="985" d="M51 1421v60l381 24v-59q-10 -2 -57 -49q-20 -27 -19 -74l27 -520l248 -25l-27 471q-4 53 -14 68q-6 4 -19 4q-4 0 -15 -1t-26 -1v61l404 25v-62q-72 -10 -72 -94l-24 -1190q-4 -78 71 -90v-59l-354 -25v60q18 4 59 49q16 16 17 65v639l-248 25l49 -510q4 -51 19 -70 q4 -4 14 -4q2 0 6 1t14.5 2t24.5 1v-61l-385 -25v62q78 13 78 83v11l-76 1110q-4 63 -22.5 77.5t-53.5 20.5z" />
<glyph unicode="I" horiz-adv-x="542" d="M51 1319v61l381 25v-62q-14 -2 -33.5 -19t-25.5 -30q-16 -25 -17 -69l52 -1063q2 -51 15 -70.5t58 -46.5v-59l-381 22v62q82 10 78 92l-51 1063q-4 84 -76 94z" />
<glyph unicode="J" horiz-adv-x="753" d="M51 197q0 141 133 141q115 0 115 -115q0 -45 -29.5 -77.5t-85.5 -32.5q-14 0 -32 6l-5 -6q41 -61 123 -62q37 0 98.5 38t77.5 69q35 70 35 155q0 10 -78 985q-4 55 -22 72q-4 2 -12 2q-6 0 -29 -6t-37 -6v84l399 26v-84q-72 -2 -71 -75q0 -33 20 -379q14 -240 23.5 -408 t9.5 -192q0 -133 -53 -207q-72 -98 -109 -115q-131 -55 -207 -55q-96 0 -213 88q-51 43 -51 154z" />
<glyph unicode="K" horiz-adv-x="978" d="M51 1413v62l406 26v-61q-14 0 -58 -51q-18 -20 -18 -70l-25 -617l301 504q16 27 17 60q0 43 -96 47v59l321 -24l-2 -60q-25 4 -51.5 4t-40.5 -2q-25 -14 -62 -76l-172 -307l258 -651q6 -16 19 -45l18 -43q12 -6 17 -6q6 0 17 2t28 2v-64l-389 -51v58q6 2 55 45 q12 18 12 41q0 27 -10 61l-129 496l-111 -201v-422q0 -59 11 -80q12 -31 63 -39v-59l-330 26v60q80 6 76 92l-51 1190q-4 88 -74 94z" />
<glyph unicode="L" horiz-adv-x="808" d="M51 1380v60l404 24l-2 -59q-18 -2 -74 -51q-20 -18 -21 -72l23 -1089q4 -84 70 -84q96 0 143 71q35 55 108 236h56l-23 -389l-639 22v60q82 14 78 94l-45 1079q-4 86 -78 98z" />
<glyph unicode="M" horiz-adv-x="1064" d="M51 1319v59l348 25l133 -428l146 530l336 -24v-88h-4q-4 0 -10.5 1t-12.5 1q-18 0 -37 -2q-18 -33 -18 -80l-25 -1139q-4 -100 82 -108v-60h-383v60q61 6 86 40q20 37 21 95l24 1233l-182 -758h-84l-231 600l77 -1151q8 -106 23 -119q31 -33 78 -41v-59h-293v61 q84 12 84 135q0 16 -11.5 193.5t-32 471.5t-30.5 468q-6 61 -35 70q-18 6 -49 14z" />
<glyph unicode="N" d="M49 31v57q61 6 88 53q14 35 15 109l22 950q0 45 -22 66q-37 4 -56 4q-14 0 -28 -2v59l313 23l324 -842l-23 737q0 76 -16 107q-18 43 -86 51v59l282 -22v-60q-76 -6 -82 -18q-23 -31 -22 -92q0 -2 67 -1305h-100l-430 1104l-23 -844v-10q0 -134 105 -149v-58z" />
<glyph unicode="O" d="M51 760q0 172 49 325q78 229 144 306q92 102 213 102q119 0 213 -102q68 -76 143 -304q49 -156 49 -327q0 -197 -76 -430q-82 -252 -241 -326q-63 -27 -113 -27q-129 0 -229 117q-74 84 -121 236q-31 100 -31 430zM279 322q0 -63 14 -123q29 -131 115 -131q76 0 112 131 q57 223 58 532q0 231 -11 322q-29 254 -135 254q-109 0 -137 -254q-8 -78 -8 -322q0 -82 -4 -242.5t-4 -166.5z" />
<glyph unicode="P" horiz-adv-x="890" d="M49 1360v61l354 52q18 2 60 2q166 0 271.5 -105.5t105.5 -273.5q0 -166 -121 -269q-104 -88 -283 -88h-55l47 -585q6 -88 86 -97v-57h-326v57q88 18 88 82q0 10 -25.5 204t-67.5 503t-60 444q-4 35 -17 68q-6 4 -14 4q-10 0 -19.5 -1t-23.5 -1zM354 1300l25 -497h22 q92 0 138 63q70 98 69 238q0 102 -63 211q-41 70 -123 69q-72 0 -68 -84z" />
<glyph unicode="Q" horiz-adv-x="931" d="M51 911q0 207 43 334q33 100 121 172q39 31 127 70q41 20 141 20q174 0 267 -153q43 -76 88 -224q16 -49 26 -144t13.5 -150.5t3.5 -73.5q0 -182 -43 -311q-25 -78 -160 -213q23 -92 51 -191q25 -33 49 -33q37 0 37 68v115h47q2 -33 2 -74q0 -227 -147 -227 q-141 0 -164 247q-43 -23 -94 -22q-125 0 -217 102q-47 49 -113 252q-78 227 -78 436zM309 774q0 -254 19 -389q57 86 137 86q72 0 123 -76q10 63 14 144q16 246 16 274q0 57 6.5 211t6.5 197q0 72 -6 98q-27 102 -117 102q-115 0 -139 -102q-60 -236 -60 -545zM356 293 q0 -45 30 -78t73 -33q96 0 96 109q0 121 -98 121q-101 0 -101 -119z" />
<glyph unicode="R" horiz-adv-x="976" d="M51 29v59q41 2 64.5 28.5t23.5 63.5l23 1104q4 86 -80 94v60l334 -23q188 -10 282 -65q129 -74 129 -244q0 -238 -327 -297q141 -33 205 -123q51 -76 71 -233q8 -74 8 -154q4 -119 39 -119q29 0 43 39q23 55 23 184q0 29 -4 54l45 -4q4 -20 4 -62q0 -317 -189 -317 q-109 0 -161 100q-43 80 -43 293q0 201 -43 268q-37 57 -156 58l23 -613q4 -84 86 -92v-59h-400zM319 803h21q109 0 156 59q68 88 67 201q0 94 -55 188q-37 57 -115 58q-74 0 -74 -78v-428z" />
<glyph unicode="S" horiz-adv-x="759" d="M51 4l23 477l78 -4q76 -397 288 -397q133 0 133 149q0 86 -67 187q-31 45 -135 159q-174 188 -205 244q-20 37 -49 158q-14 104 -15 166q0 131 78 231.5t205 100.5q37 0 111.5 -32t78.5 -32q18 0 19 16v43q0 25 4 35l113 -2l-23 -379l-74 4q-4 47 -28 101q-27 37 -60 80 q-63 102 -155 102q-123 0 -123 -137q0 -102 76 -236q66 -117 159 -215q123 -127 174 -217q63 -111 64 -246q0 -150 -84 -254q-78 -94 -203 -94q-47 0 -134 37t-97 39q-23 0 -41 -10q-2 -6 -11.5 -32t-13.5 -44z" />
<glyph unicode="T" horiz-adv-x="874" d="M51 1008l37 444l735 -78l-16 -467h-55q-49 311 -134 348l-61 15l25 -1106q0 -66 16 -86q18 -35 74 -39v-80l-436 27v77q16 0 34.5 -1t24.5 -1q35 0 41 7q16 25 16 96l-24 1132q-78 -31 -117 -100q-6 -10 -16.5 -28.5t-13.5 -24.5t-10 -19.5t-9 -19.5t-7 -16.5t-7.5 -17.5 t-5.5 -17.5t-5 -21.5t-4 -23h-82z" />
<glyph unicode="U" horiz-adv-x="976" d="M51 1358v59l398 45v-59q-20 0 -66 -45q-16 -23 -16 -72v-948q0 -133 22 -186q39 -88 148 -89q113 0 155 89q31 63 31 190l22 788q1 10 1 20q0 62 -23 97q-39 55 -78 64v59l281 -45v-59q-41 0 -78 -19q-18 -25 -23 -117l-22 -776q0 -180 -78 -276q-78 -92 -260 -92 q-178 0 -253 83t-75 261v956q0 70 -47 84q-14 -6 -39 -12z" />
<glyph unicode="V" horiz-adv-x="933" d="M51 1212v62l375 49v-61q-70 0 -70 -50q0 -29 4 -47l129 -714l189 782l5 20l5 21q2 8 2 10q0 66 -92 80v59l285 -51v-57q-72 -14 -103 -133l-297 -1176l-121 -22l-202 1116q-10 53 -31 86q-15 16 -78 26z" />
<glyph unicode="W" horiz-adv-x="1124" d="M51 1327v59l287 50v-60q-72 -8 -72 -65l99 -848l155 579l-12 74q-10 72 -90 86v55h323v-55q-70 -6 -69 -59q0 -10 2 -21q-4 -18 -17 -67l156 -652l51 902q0 8 2 27.5t2 23.5q0 115 -102 123v57l307 -25v-57q-82 -20 -90 -147l-102 -1336h-154l-158 891l-221 -817h-72 l-149 1165q-13 99 -76 117z" />
<glyph unicode="X" horiz-adv-x="960" d="M51 1323l404 51v-59q-57 -4 -58 -37q0 -16 13 -49l110 -293l133 364q14 43 15 54q0 39 -9 55q-12 20 -77 33v57l295 -24v-58h-7q-96 0 -139 -114l-174 -463l215 -566q47 -125 78 -124q6 0 22.5 6t36.5 6v-56l-407 -51v58q66 4 65 49q0 20 -16 61l-127 334l-96 -395 q-2 -10 -7 -31l-10 -37l-4 -14q0 -23 21 -47q6 -4 28.5 -22.5t28.5 -22.5v-56l-309 25v53q137 12 178 164l131 481l-201 539q-25 63 -131 72z" />
<glyph unicode="Y" horiz-adv-x="985" d="M51 1292v58l418 24l-2 -55q-82 -4 -82 -57q0 -12 10 -58l172 -522l172 551q8 33 9 57q0 102 -91 103v59l277 -27v-57q-80 -8 -125 -149l-201 -654v-456q0 -86 90 -93v-57h-411v57q39 2 61 19q25 14 29 74l26 473l-247 641q-23 53 -37 73q-14 2 -35 2q-23 0 -33 -6z" />
<glyph unicode="Z" horiz-adv-x="839" d="M51 27l447 1284q-16 2 -45 2q-133 0 -201 -74q-106 -113 -137 -258h-56l37 389l654 127v-47l-519 -1333q14 -4 48 -4q150 0 278.5 100t165.5 264h65l-75 -422l-662 -100v72z" />
<glyph unicode="[" horiz-adv-x="630" d="M133 1614l479 20v-104l-303 -21l21 -1640l282 20v-104l-458 -41z" />
<glyph unicode="\" horiz-adv-x="671" d="M20 1575l134 41l471 -1804l-129 -41z" />
<glyph unicode="]" horiz-adv-x="630" d="M16 -152l324 41l-41 1620l-283 21v104l459 -20v-1809l-459 -41v84z" />
<glyph unicode="^" horiz-adv-x="1261" d="M215 1204l365 402l129 4l329 -402l-155 -41l-236 285l-274 -285z" />
<glyph unicode="_" horiz-adv-x="1024" d="M0 -207h1024v-158h-1024v158z" />
<glyph unicode="`" horiz-adv-x="542" d="M94 1538l96 80l230 -248l-144 -156z" />
<glyph unicode="a" horiz-adv-x="995" d="M51 14v56q37 0 61.5 27.5t33 53t18.5 70.5l260 1237h119l280 -1216q29 -135 115 -140l6 -57l-409 -18v57q74 6 73 59q0 43 -6 68l-63 215l-250 14l-51 -235q-6 -25 -7 -55q0 -47 24 -69t73 -26v-55zM307 518l215 -16l-114 545z" />
<glyph unicode="b" horiz-adv-x="886" d="M51 1430l371 -3q188 0 289 -55q119 -102 118 -272q0 -262 -325 -328q332 -59 332 -313q0 -41 -8.5 -95.5t-45.5 -135.5t-96 -130q-125 -104 -317 -104q-123 0 -275 20v84q39 0 58.5 15.5t17.5 44.5l-41 1112q-2 35 -5 49t-19.5 28.5t-51.5 20.5zM326 162q-2 -35 16 -65.5 t55 -30.5q72 0 111 94q27 57 41 170.5t14 179.5q0 88 -20 123q-55 106 -199 106zM344 799h21q190 0 190 272q0 150 -16 197q-33 96 -125 96q-59 0 -60 -68z" />
<glyph unicode="c" horiz-adv-x="800" d="M51 670q0 291 96 483q109 219 318 219q80 0 149 -55l31 -8l8 137l99 -14l-47 -494h-95q-4 373 -123 373q-35 0 -81 -37t-78 -129q-45 -201 -45 -477q0 -322 69 -451q45 -121 144 -149q86 0 141 88q31 45 31 100t-13 98l68 15q12 -59 12 -107q0 -92 -57 -174 q-70 -104 -207 -104q-190 0 -313 198q-51 82 -79 236t-28 252z" />
<glyph unicode="d" horiz-adv-x="917" d="M47 1264v90q178 14 289 14q29 0 90 -7t156.5 -34t140.5 -67q66 -55 98 -134q45 -102 45 -243q0 -25 -14 -207q-29 -406 -119 -522q-76 -98 -208 -137.5t-253 -39.5q-27 0 -70.5 3.5t-86.5 3.5v84q43 0 62.5 17t17.5 50l-68 1051q-2 33 -17.5 51.5t-62.5 26.5zM305 1161 l23 -919q0 -49 10 -70q12 -31 59 -31q90 0 101 2q31 12 48 66.5t19 105.5l25 762v20q0 58 -10 99q-8 23 -29 39t-35 20.5t-20 4.5q-57 6 -115 6h-6q-37 0 -53 -26q-19 -28 -17 -79z" />
<glyph unicode="e" horiz-adv-x="815" d="M51 1395v61l713 -22l-19 -322h-61q-10 72 -20 102q-4 6 -23.5 35t-30.5 41q-68 76 -161 76q-47 0 -59.5 -17.5t-14.5 -74.5l-17 -481q27 4 53.5 24.5t37 34.5t40.5 55q23 45 25 70h59l15 -430h-62q0 39 -20 67q-45 61 -74 82q-43 25 -78 31l-20 -526q-2 -39 20.5 -56.5 t67.5 -17.5q88 0 151 82q45 59 64 98q16 31 16 90h70l25 -340l-668 -22v84q43 6 61.5 26.5t16.5 63.5l-27 1094q0 86 -80 92z" />
<glyph unicode="f" horiz-adv-x="815" d="M51 18v60q90 12 90 82l-10 1100q-4 29 -8 49q-12 41 -68 49v57l709 -35l-31 -368h-55q-6 53 -27 108q-20 66 -63 129q-70 76 -133 76q-68 -8 -80 -25q-14 -18 -15 -77l-18 -459q98 4 147 67l11 13q10 10 24.5 32.5t22.5 51.5h59l-24 -416h-58q-8 72 -30 111 q-51 72 -152 77l-23 -540q-2 -82 87 -117v-55z" />
<glyph unicode="g" horiz-adv-x="944" d="M51 780q0 287 76 412q123 201 319 201q61 0 132 -39l73 -41l-18 155l100 11l29 -518h-68q-29 184 -88 277t-168 93q-41 0 -70.5 -40t-44 -104.5t-21.5 -125t-7 -123.5q0 -35 1 -79t3 -77v-32q0 -360 61 -562q27 -96 97 -96q63 0 90 60q35 74 41 172l12 225q-12 88 -20 94 q-20 4 -45 4q-16 0 -29 -2l4 84l383 -20l-6 -78q-51 -8 -72 -10q-14 -18 -29 -369q-8 -160 -12 -266h-80l-2 182q-59 -76 -114.5 -108.5t-128.5 -32.5q-178 0 -273 176q-125 233 -125 577z" />
<glyph unicode="h" horiz-adv-x="985" d="M51 1321v61l381 -22v-62q-76 -8 -76 -100l4 -528l256 45l-8 602q0 37 -16 53q-27 16 -60 16v62l402 27v-62q-68 -10 -72 -96l-51 -1155q-4 -84 74 -92v-66l-342 27v61q78 8 78 78l-5 465l-256 -45v-492q0 -51 17 -67q39 -33 65 -37v-60l-346 -16v62q41 20 60.5 45.5 t17.5 72.5l-47 1100q-4 117 -76 123z" />
<glyph unicode="i" horiz-adv-x="546" d="M51 16v72q82 10 105 74l22 1057v12q0 50 -14 77q-16 30 -64 46v59l396 -33v-61q-76 -16 -86 -80l-60 -1044q0 -51 15 -68q4 -2 19 -16.5t29.5 -23.5t22.5 -11v-60h-385z" />
<glyph unicode="j" horiz-adv-x="845" d="M51 240q0 80 39 115q37 34 92 34h6q127 -6 127 -121q0 -53 -32.5 -82.5t-83.5 -29.5q-14 0 -29 8q0 -29 41 -51.5t127 -22.5q90 0 131 57q43 57 43 172v21l-23 1001q-2 14 -4 19.5t-13 14.5t-34 18q-41 10 -49 10v84l406 -29v-84q-39 -2 -57.5 -20.5t-20.5 -65.5 l-23 -903q-2 -113 -12 -164t-39 -108q-2 -4 -14.5 -21.5t-16.5 -23t-14 -18.5t-18.5 -20t-20.5 -15.5t-27 -14.5q-74 -29 -149 -29q-150 0 -266 115q-25 25 -41.5 64.5t-20.5 60.5t-4 29z" />
<glyph unicode="k" horiz-adv-x="974" d="M51 1438v61l381 -24v-62q-45 -27 -55 -35q-20 -16 -21 -86l-22 -590l299 504q16 27 16 58q0 33 -45 32q-8 0 -15 -1t-16.5 -3t-15.5 -2l-4 60l321 22l-6 -63q-10 0 -47 -4q-53 -8 -102 -91l-166 -278l264 -803q25 -47 39 -80q33 -14 45 -14q14 0 23 2l-6 -59l-390 -27v55 q66 16 66 64q0 8 -10 59l-129 641l-125 -201l-2 -380q0 -57 12 -82q10 -31 63 -37v-60l-331 -24v57q43 8 58 30.5t15 65.5l-18 1200q0 16 -4 34t-22.5 38.5t-49.5 22.5z" />
<glyph unicode="l" horiz-adv-x="761" d="M51 6v60q45 8 61.5 30.5t16.5 63.5l18 1122q0 86 -79 98v60l407 -31l-4 -61q-90 0 -94 -121l-60 -1055q2 -68 72 -68q102 0 162 91q55 117 70 223l57 12l33 -389z" />
<glyph unicode="m" horiz-adv-x="1064" d="M51 1389v61l348 25l154 -510l125 489l336 -24v-89q-4 -2 -8 -2q-10 0 -24.5 5.5t-19 5.5t-12.5 -9q-18 -35 -18 -77l-25 -1141q-2 -100 82 -107v-59l-383 29v59q61 8 86 31q20 61 21 74l24 1232l-168 -716h-84l-245 677l59 -1107q6 -90 23 -119q23 -37 79 -43v-58h-309 v60q99 15 99 128q0 7 -1 13l-55 1090q0 4 -2 16t-3 15t-3 12.5t-6 12.5t-9.5 8t-13.5 7l-20 5q-13 4 -27 6z" />
<glyph unicode="n" horiz-adv-x="958" d="M51 1337v56l342 -21l320 -846l14 744q0 68 -16 104q-23 16 -86 27v57l282 -14v-58q-70 -6 -82 -18q-23 -20 -22 -98l-8 -1145h-103l-413 967l49 -895q25 -133 104 -134v-55l-326 -12v51q59 8 84 66q17 42 17 96v12l-49 1002q-4 86 -23 108q-23 8 -51 8q-21 0 -33 -2z" />
<glyph unicode="o" horiz-adv-x="899" d="M51 784q0 51 17.5 173t37.5 176q66 180 143 271t204 91q115 0 231 -106q94 -92 129 -236q35 -139 35 -377q0 -229 -72 -444q-51 -154 -144 -243t-204 -89q-121 0 -218 105.5t-136 248.5q-23 78 -23 430zM305 557q0 -152 25 -274q37 -162 114 -162q88 0 127 162 q55 223 60 530q0 41 2 116q1 50 1 87v35q-1 47 -7 92q-20 123 -50 191.5t-85 68.5q-53 0 -94.5 -66.5t-59.5 -193.5q-33 -248 -33 -586z" />
<glyph unicode="p" horiz-adv-x="882" d="M51 1343v60q47 2 151.5 5t172 5t84.5 2q211 0 291.5 -69.5t80.5 -225.5q0 -115 -59 -224.5t-108 -133.5q-90 -59 -261 -60h-59l-18 -589q8 -86 96 -93v-59l-320 12v58q55 2 73 22.5t15 59.5l-63 1149q-6 59 -16 67q-33 10 -60 14zM326 750h32q109 0 154 61q76 109 76 313 q0 84 -37 146q-39 61 -148 61q-78 0 -77 -86v-495z" />
<glyph unicode="q" horiz-adv-x="927" d="M51 819q0 188 70 406q61 113 117 182l12 12q10 10 15 13.5t17.5 12.5t20.5 14t23.5 12.5t31 11.5t34 8t41 6t46.5 2q174 0 266 -151q51 -88 84 -195q47 -164 48 -399q0 -172 -43 -312q-39 -121 -160 -213l51 -196q20 -31 47 -31q33 0 39 68q4 45 4 112h55q2 -29 2 -71 q0 -92 -37.5 -160t-121.5 -68q-68 0 -112 65.5t-52 186.5q-45 -23 -94 -22q-201 0 -310 170q-57 150 -75.5 257t-18.5 279zM266 758q0 -31 19.5 -180.5t38.5 -200.5q59 86 137 86q72 0 123 -76q23 150 22 297q0 420 -78 627q-14 41 -35.5 66.5t-35 31.5t-21.5 6 q-109 -16 -135 -131q-35 -155 -35 -526zM352 285q0 -41 25.5 -75t77.5 -34q96 0 96 107q0 55 -26.5 89t-75.5 34q-39 0 -68 -37t-29 -84z" />
<glyph unicode="r" horiz-adv-x="942" d="M51 1309v59q39 6 109.5 20.5t103.5 20.5t85 11t106 5q162 0 241 -47q100 -57 101 -188q0 -27 -13 -107q-45 -240 -286 -274q139 -33 204 -123q39 -57 39 -158q0 -51 -8 -124.5t-8 -122.5q0 -141 57 -142q29 0 41 39q20 61 21 133q0 39 -2 56l45 -2q4 -20 4 -62 q0 -268 -189 -268q-104 0 -161 98q-43 92 -44 178q0 7 1 15l10 200l4 15l5 41q3 25 3 47q0 74 -24 119q-39 53 -158 53l-21 -531q-2 -37 19.5 -64.5t66.5 -29.5v-59h-327v59q94 12 88 94l-37 996q0 33 -76 43zM342 831l70 -6q41 0 82 37q82 74 88 289q0 70 -33 125 q-35 66 -106.5 65.5t-75.5 -79.5z" />
<glyph unicode="s" horiz-adv-x="804" d="M51 489l76 -6q102 -395 315 -395q131 0 166 141q4 20 4 43q0 92 -71 150q-8 6 -32 31.5t-72 72.5t-101 101q-111 106 -164 200q-43 80 -66 150q-20 102 -20 174q0 135 80 231q82 100 233 101q31 0 105 -33t78 -33q4 12 4 90l110 13v-435l-71 5q-25 137 -95 227 q-59 100 -143 100q-74 0 -114 -25.5t-40 -99.5q0 -37 9.5 -75.5t28 -75.5t31.5 -59.5t34.5 -54.5t23.5 -34q49 -80 169 -191.5t163 -189.5q61 -106 62 -243q0 -162 -82 -254q-104 -94 -240 -95q-41 0 -128 38t-99 38q-23 0 -37 -12q2 -8 2 -31q0 -29 -4 -45l-88 4z" />
<glyph unicode="t" horiz-adv-x="864" d="M51 1374l762 72l-25 -445h-55q-43 256 -127 289l-67 8l-2 -1108q0 -63 14 -88q18 -35 74 -39v-77l-402 -21v78q16 2 51 2q57 20 64 100l-39 1119q-59 -8 -94 -35q-57 -82 -66 -250l-67 -14z" />
<glyph unicode="u" horiz-adv-x="923" d="M51 1270v61l402 -16v-60q-86 -45 -86 -116l12 -817q0 -133 22 -187q37 -88 150 -88t156 88q32 66 32 152q0 18 -2 37l-45 872q-6 92 -22 119q-29 25 -80 43v61l282 -6v-59q-8 -4 -26.5 -11.5t-32.5 -14.5t-20 -13q-14 -25 -23 -119l45 -860q1 -19 1 -38q0 -153 -77 -241 q-80 -90 -260 -90q-182 0 -254.5 85t-74.5 259l-13 889q0 41 -43 64z" />
<glyph unicode="v" horiz-adv-x="935" d="M51 1257v60l375 51v-59q-70 0 -70 -52q0 -25 4 -45l205 -833l109 678q4 29 4 51q0 70 -90 78v61l297 25v-60q-78 -14 -99 -131l-217 -1149h-131l-278 1215q-14 61 -31 84q-17 14 -78 26z" />
<glyph unicode="w" horiz-adv-x="1067" d="M51 1391v57l297 -53v-60q-37 -2 -55.5 -19.5t-16.5 -45.5l70 -856l113 534l8 99q1 6 1 11q0 42 -40 66q-18 10 -55 11v59l313 -2v-59q-70 -6 -82 -50q-2 -4 -14 -90l170 -631l8 889q0 117 -102 123v58l350 45v-58q-63 -16 -76 -41q-35 -51 -37 -106l-35 -1313l-153 18 l-199 844l-194 -864l-78 10l-119 1247q0 4 -2 27t-3 33t-5 29.5t-8.5 29.5t-11.5 24.5t-18.5 22t-25.5 11.5z" />
<glyph unicode="x" horiz-adv-x="1015" d="M51 76v55q39 4 66.5 15.5t50 42t30 45t29.5 63.5l191 412l-205 544q-25 63 -127 72l-6 57l403 52v-58q-57 -4 -57 -39q0 -18 12 -47l119 -368l125 272q14 29 14 53q-2 61 -28 72q-33 14 -56 16v58l324 43v-58q-98 0 -148 -112l-192 -439l233 -612q35 -90 68 -98 q8 0 31.5 -7.5t36.5 -7.5v-53l-408 -49v53q68 4 68 49q0 20 -17 62l-153 444l-154 -325q-2 -10 -10 -39t-10 -41q0 -31 20 -49q8 -6 21.5 -17.5t22.5 -19.5t15 -13v-53z" />
<glyph unicode="y" horiz-adv-x="946" d="M51 1362v57l393 -14l-4 -59q-82 0 -82 -54q0 -25 11 -59l172 -641l147 473q12 37 12 55q0 53 -18 78t-68 27v57l281 23v-56q-35 -4 -62.5 -42t-37 -64.5t-29.5 -91.5l-184 -576l-15 -405q-2 -82 90 -93v-57l-358 -22v57q90 10 90 102v13l-12 422l-221 800q-10 43 -39 72 q-2 0 -12.5 1t-16.5 1q-23 0 -37 -4z" />
<glyph unicode="z" d="M51 39v74l611 1167q-147 14 -205 14q-127 0 -174 -24q-53 -84 -66 -238h-55l-10 387l710 -16v-47l-631 -1153q25 -2 138.5 -13.5t148.5 -11.5q88 0 117 37q45 63 104 195h66l2 -430z" />
<glyph unicode="{" horiz-adv-x="849" d="M76 608q92 8 149.5 32t83 70t32.5 87t7 110v385q0 209 101 283q80 59 299 63l-21 -77q-74 0 -98 -5q-35 -6 -58 -28q-68 -74 -67 -211v-322q0 -258 -35 -307q-59 -90 -168 -115q109 -20 168 -114q35 -53 35 -307v-138q0 -133 67 -207q47 -53 177 -53l40 -78 q-104 0 -192 21q-109 27 -164 74q-84 74 -84 270v201q0 63 -6 102t-28.5 88t-77 77t-140.5 32z" />
<glyph unicode="|" horiz-adv-x="1024" d="M424 -481v2107h178v-2107h-178z" />
<glyph unicode="}" horiz-adv-x="849" d="M63 -324l41 78q131 4 177 53q68 78 67 207v138q0 254 35 307q59 92 168 114q-104 23 -168 115q-35 49 -35 307v322q0 135 -67 211q-16 16 -43 23.5t-45.5 8.5t-67.5 1l-21 77q213 0 299 -63q100 -78 101 -283v-385q0 -156 53 -217q57 -68 219 -82l-20 -67 q-119 -10 -176 -58q-76 -63 -76 -241v-201q0 -195 -84 -270q-55 -47 -164 -74q-91 -21 -193 -21z" />
<glyph unicode="~" horiz-adv-x="1355" d="M70 510q25 184 115.5 288.5t236.5 104.5q94 0 163.5 -30.5t149.5 -103.5t145.5 -124t120.5 -51q25 0 65 20.5t62 44.5q10 10 21.5 32t21 43.5t18.5 47t14 44t11.5 36t6.5 19.5l57 -4q-12 -143 -55 -244t-127 -158t-183 -57q-152 0 -368 160q-109 82 -152 102t-86 20 q-70 0 -114 -55q-20 -25 -64 -137z" />
<glyph unicode="&#xaa;" horiz-adv-x="995" d="M51 14v56q37 0 61.5 27.5t33 53t18.5 70.5l260 1237h119l280 -1216q29 -135 115 -140l6 -57l-409 -18v57q74 6 73 59q0 43 -6 68l-63 215l-250 14l-51 -235q-6 -25 -7 -55q0 -47 24 -69t73 -26v-55zM307 518l215 -16l-114 545z" />
<glyph unicode="&#xad;" horiz-adv-x="1024" d="M111 719v143l802 -8v-143z" />
<glyph unicode="&#xb2;" horiz-adv-x="819" d="M51 27v100q45 172 68 217q70 137 155 256q27 35 80.5 101.5t91 115.5t52.5 72q57 115 57 233q0 229 -213 230q-66 0 -111 -40t-53 -114q25 12 45 12q43 0 74 -30.5t31 -77.5t-30 -81t-79 -34q-125 0 -125 164q0 121 92.5 200t219.5 79q162 0 263 -86.5t101 -251.5 q0 -59 -83 -175t-148.5 -187t-173.5 -183q-109 -115 -119 -135q-31 -72 -62 -148q53 -6 161 -27.5t126 -21.5q33 0 49.5 3t39 16.5t37.5 44t28 83.5h55l-21 -362z" />
<glyph unicode="&#xb3;" horiz-adv-x="800" d="M51 199q0 125 102.5 125t102.5 -98.5t-113 -98.5q78 -88 152 -88q31 0 79 30.5t81 80.5q35 47 34 204q0 309 -153 310q-10 0 -26.5 -5.5t-26.5 -5.5q-41 0 -41 39q0 37 39 37q10 0 34.5 -5t36.5 -5q74 0 119 80q68 123 68 288q0 293 -181 293q-125 0 -155 -114q25 4 39 4 q98 0 98 -107q0 -39 -24.5 -71.5t-73.5 -32.5q-59 0 -89 44t-30 105q0 104 86 178q78 63 192 64q152 0 250.5 -92t98.5 -277q0 -72 -32 -155.5t-73 -126.5q-47 -47 -97 -72t-145 -39q291 -70 291 -340q0 -156 -86 -237q-145 -133 -268 -134q-113 0 -188 66q-101 90 -101 156 z" />
<glyph unicode="&#xb9;" horiz-adv-x="636" d="M51 70v57l115 -2q27 0 35 8q23 27 22 111l27 909q0 45 -27 74q-14 10 -35 8l-112 -8v59q86 12 166 74l145 113h55l-24 -1237q0 -72 20 -105q35 -47 72 -49l76 -4v-60z" />
<glyph unicode="&#xba;" horiz-adv-x="899" d="M51 784q0 51 17.5 173t37.5 176q66 180 143 271t204 91q115 0 231 -106q94 -92 129 -236q35 -139 35 -377q0 -229 -72 -444q-51 -154 -144 -243t-204 -89q-121 0 -218 105.5t-136 248.5q-23 78 -23 430zM305 557q0 -152 25 -274q37 -162 114 -162q88 0 127 162 q55 223 60 530q0 41 2 116q1 50 1 87v35q-1 47 -7 92q-20 123 -50 191.5t-85 68.5q-53 0 -94.5 -66.5t-59.5 -193.5q-33 -248 -33 -586z" />
<glyph unicode="&#xc0;" horiz-adv-x="985" d="M319 1939l96 80l230 -248l-144 -156zM51 76v55q72 4 113 166l285 1196h118l260 -1288q29 -137 107 -142v-55h-395v55q76 2 75 62q0 45 -6 68l-67 268l-250 -23l-60 -159q-6 -10 -6 -54q0 -88 101 -94v-55h-275zM309 516l217 23l-96 542z" />
<glyph unicode="&#xc2;" horiz-adv-x="985" d="M88 1653l365 402l129 4l329 -402l-155 -41l-236 285l-274 -285zM51 76v55q72 4 113 166l285 1196h118l260 -1288q29 -137 107 -142v-55h-395v55q76 2 75 62q0 45 -6 68l-67 268l-250 -23l-60 -159q-6 -10 -6 -54q0 -88 101 -94v-55h-275zM309 516l217 23l-96 542z" />
<glyph unicode="&#xc3;" horiz-adv-x="985" d="M-114 1708q25 184 115.5 288.5t236.5 104.5q94 0 163.5 -30.5t149.5 -103.5t145.5 -124t120.5 -51q25 0 65 20.5t62 44.5q10 10 21.5 32t21 43.5t18.5 47t14 44t11.5 36t6.5 19.5l57 -4q-12 -143 -55 -244t-127 -158t-183 -57q-152 0 -368 160q-109 82 -152 102t-86 20 q-70 0 -114 -55q-20 -25 -64 -137zM51 76v55q72 4 113 166l285 1196h118l260 -1288q29 -137 107 -142v-55h-395v55q76 2 75 62q0 45 -6 68l-67 268l-250 -23l-60 -159q-6 -10 -6 -54q0 -88 101 -94v-55h-275zM309 516l217 23l-96 542z" />
<glyph unicode="&#xc8;" horiz-adv-x="837" d="M592 1939l96 80l230 -248l-144 -156zM51 29v82q74 12 78 92l23 1083q0 41 -15.5 64.5t-62.5 29.5v60l708 22l4 -340h-61q-16 84 -43 115l-55 66q-63 78 -170 77q-33 0 -49.5 -10t-20.5 -26.5t-6 -57.5l-23 -493q74 10 117 65q8 10 49 39q29 20 33 64h61l-22 -429h-61 l-3.5 24.5t-8.5 23t-9 17.5t-15.5 24.5t-19.5 27.5q-49 70 -121 78v-532q0 -84 70 -84q102 0 172 92q12 14 64 80q29 47 51 127h57l-6 -359z" />
<glyph unicode="&#xca;" horiz-adv-x="837" d="M360 1653l365 402l129 4l329 -402l-155 -41l-236 285l-274 -285zM51 29v82q74 12 78 92l23 1083q0 41 -15.5 64.5t-62.5 29.5v60l708 22l4 -340h-61q-16 84 -43 115l-55 66q-63 78 -170 77q-33 0 -49.5 -10t-20.5 -26.5t-6 -57.5l-23 -493q74 10 117 65q8 10 49 39 q29 20 33 64h61l-22 -429h-61l-3.5 24.5t-8.5 23t-9 17.5t-15.5 24.5t-19.5 27.5q-49 70 -121 78v-532q0 -84 70 -84q102 0 172 92q12 14 64 80q29 47 51 127h57l-6 -359z" />
<glyph unicode="&#xcc;" horiz-adv-x="542" d="M239 1939l96 80l230 -248l-144 -156zM51 1319v61l381 25v-62q-14 -2 -33.5 -19t-25.5 -30q-16 -25 -17 -69l52 -1063q2 -51 15 -70.5t58 -46.5v-59l-381 22v62q82 10 78 92l-51 1063q-4 84 -76 94z" />
<glyph unicode="&#xce;" horiz-adv-x="542" d="M8 1653l365 402l129 4l329 -402l-155 -41l-236 285l-274 -285zM51 1319v61l381 25v-62q-14 -2 -33.5 -19t-25.5 -30q-16 -25 -17 -69l52 -1063q2 -51 15 -70.5t58 -46.5v-59l-381 22v62q82 10 78 92l-51 1063q-4 84 -76 94z" />
<glyph unicode="&#xd1;" d="M-45 1708q25 184 115.5 288.5t236.5 104.5q94 0 163.5 -30.5t149.5 -103.5t145.5 -124t120.5 -51q25 0 65 20.5t62 44.5q10 10 21.5 32t21 43.5t18.5 47t14 44t11.5 36t6.5 19.5l57 -4q-12 -143 -55 -244t-127 -158t-183 -57q-152 0 -368 160q-109 82 -152 102t-86 20 q-70 0 -114 -55q-20 -25 -64 -137zM49 31v57q61 6 88 53q14 35 15 109l22 950q0 45 -22 66q-37 4 -56 4q-14 0 -28 -2v59l313 23l324 -842l-23 737q0 76 -16 107q-18 43 -86 51v59l282 -22v-60q-76 -6 -82 -18q-23 -31 -22 -92q0 -2 67 -1305h-100l-430 1104l-23 -844v-10 q0 -134 105 -149v-58z" />
<glyph unicode="&#xd2;" d="M268 1939l96 80l230 -248l-144 -156zM51 760q0 172 49 325q78 229 144 306q92 102 213 102q119 0 213 -102q68 -76 143 -304q49 -156 49 -327q0 -197 -76 -430q-82 -252 -241 -326q-63 -27 -113 -27q-129 0 -229 117q-74 84 -121 236q-31 100 -31 430zM279 322 q0 -63 14 -123q29 -131 115 -131q76 0 112 131q57 223 58 532q0 231 -11 322q-29 254 -135 254q-109 0 -137 -254q-8 -78 -8 -322q0 -82 -4 -242.5t-4 -166.5z" />
<glyph unicode="&#xd4;" d="M37 1653l365 402l129 4l329 -402l-155 -41l-236 285l-274 -285zM51 760q0 172 49 325q78 229 144 306q92 102 213 102q119 0 213 -102q68 -76 143 -304q49 -156 49 -327q0 -197 -76 -430q-82 -252 -241 -326q-63 -27 -113 -27q-129 0 -229 117q-74 84 -121 236 q-31 100 -31 430zM279 322q0 -63 14 -123q29 -131 115 -131q76 0 112 131q57 223 58 532q0 231 -11 322q-29 254 -135 254q-109 0 -137 -254q-8 -78 -8 -322q0 -82 -4 -242.5t-4 -166.5z" />
<glyph unicode="&#xd5;" d="M-166 1708q25 184 115.5 288.5t236.5 104.5q94 0 163.5 -30.5t149.5 -103.5t145.5 -124t120.5 -51q25 0 65 20.5t62 44.5q10 10 21.5 32t21 43.5t18.5 47t14 44t11.5 36t6.5 19.5l57 -4q-12 -143 -55 -244t-127 -158t-183 -57q-152 0 -368 160q-109 82 -152 102t-86 20 q-70 0 -114 -55q-20 -25 -64 -137zM51 760q0 172 49 325q78 229 144 306q92 102 213 102q119 0 213 -102q68 -76 143 -304q49 -156 49 -327q0 -197 -76 -430q-82 -252 -241 -326q-63 -27 -113 -27q-129 0 -229 117q-74 84 -121 236q-31 100 -31 430zM279 322q0 -63 14 -123 q29 -131 115 -131q76 0 112 131q57 223 58 532q0 231 -11 322q-29 254 -135 254q-109 0 -137 -254q-8 -78 -8 -322q0 -82 -4 -242.5t-4 -166.5z" />
<glyph unicode="&#xd9;" horiz-adv-x="976" d="M258 1939l96 80l230 -248l-144 -156zM51 1358v59l398 45v-59q-20 0 -66 -45q-16 -23 -16 -72v-948q0 -133 22 -186q39 -88 148 -89q113 0 155 89q31 63 31 190l22 788q1 10 1 20q0 62 -23 97q-39 55 -78 64v59l281 -45v-59q-41 0 -78 -19q-18 -25 -23 -117l-22 -776 q0 -180 -78 -276q-78 -92 -260 -92q-178 0 -253 83t-75 261v956q0 70 -47 84q-14 -6 -39 -12z" />
<glyph unicode="&#xdb;" horiz-adv-x="976" d="M27 1653l365 402l129 4l329 -402l-155 -41l-236 285l-274 -285zM51 1358v59l398 45v-59q-20 0 -66 -45q-16 -23 -16 -72v-948q0 -133 22 -186q39 -88 148 -89q113 0 155 89q31 63 31 190l22 788q1 10 1 20q0 62 -23 97q-39 55 -78 64v59l281 -45v-59q-41 0 -78 -19 q-18 -25 -23 -117l-22 -776q0 -180 -78 -276q-78 -92 -260 -92q-178 0 -253 83t-75 261v956q0 70 -47 84q-14 -6 -39 -12z" />
<glyph unicode="&#xe0;" horiz-adv-x="995" d="M293 1941l96 80l230 -248l-144 -156zM51 14v56q37 0 61.5 27.5t33 53t18.5 70.5l260 1237h119l280 -1216q29 -135 115 -140l6 -57l-409 -18v57q74 6 73 59q0 43 -6 68l-63 215l-250 14l-51 -235q-6 -25 -7 -55q0 -47 24 -69t73 -26v-55zM307 518l215 -16l-114 545z" />
<glyph unicode="&#xe2;" horiz-adv-x="995" d="M61 1655l365 402l129 4l329 -402l-155 -41l-236 285l-274 -285zM51 14v56q37 0 61.5 27.5t33 53t18.5 70.5l260 1237h119l280 -1216q29 -135 115 -140l6 -57l-409 -18v57q74 6 73 59q0 43 -6 68l-63 215l-250 14l-51 -235q-6 -25 -7 -55q0 -47 24 -69t73 -26v-55z M307 518l215 -16l-114 545z" />
<glyph unicode="&#xe3;" horiz-adv-x="995" d="M-141 1710q25 184 115.5 288.5t236.5 104.5q94 0 163.5 -30.5t149.5 -103.5t145.5 -124t120.5 -51q25 0 65 20.5t62 44.5q10 10 21.5 32t21 43.5t18.5 47t14 44t11.5 36t6.5 19.5l57 -4q-12 -143 -55 -244t-127 -158t-183 -57q-152 0 -368 160q-109 82 -152 102t-86 20 q-70 0 -114 -55q-20 -25 -64 -137zM51 14v56q37 0 61.5 27.5t33 53t18.5 70.5l260 1237h119l280 -1216q29 -135 115 -140l6 -57l-409 -18v57q74 6 73 59q0 43 -6 68l-63 215l-250 14l-51 -235q-6 -25 -7 -55q0 -47 24 -69t73 -26v-55zM307 518l215 -16l-114 545z" />
<glyph unicode="&#xe8;" horiz-adv-x="815" d="M-139 1941l96 80l230 -248l-144 -156zM51 1395v61l713 -22l-19 -322h-61q-10 72 -20 102q-4 6 -23.5 35t-30.5 41q-68 76 -161 76q-47 0 -59.5 -17.5t-14.5 -74.5l-17 -481q27 4 53.5 24.5t37 34.5t40.5 55q23 45 25 70h59l15 -430h-62q0 39 -20 67q-45 61 -74 82 q-43 25 -78 31l-20 -526q-2 -39 20.5 -56.5t67.5 -17.5q88 0 151 82q45 59 64 98q16 31 16 90h70l25 -340l-668 -22v84q43 6 61.5 26.5t16.5 63.5l-27 1094q0 86 -80 92z" />
<glyph unicode="&#xea;" horiz-adv-x="815" d="M-371 1655l365 402l129 4l329 -402l-155 -41l-236 285l-274 -285zM51 1395v61l713 -22l-19 -322h-61q-10 72 -20 102q-4 6 -23.5 35t-30.5 41q-68 76 -161 76q-47 0 -59.5 -17.5t-14.5 -74.5l-17 -481q27 4 53.5 24.5t37 34.5t40.5 55q23 45 25 70h59l15 -430h-62 q0 39 -20 67q-45 61 -74 82q-43 25 -78 31l-20 -526q-2 -39 20.5 -56.5t67.5 -17.5q88 0 151 82q45 59 64 98q16 31 16 90h70l25 -340l-668 -22v84q43 6 61.5 26.5t16.5 63.5l-27 1094q0 86 -80 92z" />
<glyph unicode="&#xec;" horiz-adv-x="546" d="M-92 1941l96 80l230 -248l-144 -156zM51 16v72q82 10 105 74l22 1057v12q0 50 -14 77q-16 30 -64 46v59l396 -33v-61q-76 -16 -86 -80l-60 -1044q0 -51 15 -68q4 -2 19 -16.5t29.5 -23.5t22.5 -11v-60h-385z" />
<glyph unicode="&#xee;" horiz-adv-x="546" d="M-324 1655l365 402l129 4l329 -402l-155 -41l-236 285l-274 -285zM51 16v72q82 10 105 74l22 1057v12q0 50 -14 77q-16 30 -64 46v59l396 -33v-61q-76 -16 -86 -80l-60 -1044q0 -51 15 -68q4 -2 19 -16.5t29.5 -23.5t22.5 -11v-60h-385z" />
<glyph unicode="&#xf1;" horiz-adv-x="958" d="M-153 1710q25 184 115.5 288.5t236.5 104.5q94 0 163.5 -30.5t149.5 -103.5t145.5 -124t120.5 -51q25 0 65 20.5t62 44.5q10 10 21.5 32t21 43.5t18.5 47t14 44t11.5 36t6.5 19.5l57 -4q-12 -143 -55 -244t-127 -158t-183 -57q-152 0 -368 160q-109 82 -152 102t-86 20 q-70 0 -114 -55q-20 -25 -64 -137zM51 1337v56l342 -21l320 -846l14 744q0 68 -16 104q-23 16 -86 27v57l282 -14v-58q-70 -6 -82 -18q-23 -20 -22 -98l-8 -1145h-103l-413 967l49 -895q25 -133 104 -134v-55l-326 -12v51q59 8 84 66q17 42 17 96v12l-49 1002q-4 86 -23 108 q-23 8 -51 8q-21 0 -33 -2z" />
<glyph unicode="&#xf2;" horiz-adv-x="899" d="M264 1941l96 80l230 -248l-144 -156zM51 784q0 51 17.5 173t37.5 176q66 180 143 271t204 91q115 0 231 -106q94 -92 129 -236q35 -139 35 -377q0 -229 -72 -444q-51 -154 -144 -243t-204 -89q-121 0 -218 105.5t-136 248.5q-23 78 -23 430zM305 557q0 -152 25 -274 q37 -162 114 -162q88 0 127 162q55 223 60 530q0 41 2 116q1 50 1 87v35q-1 47 -7 92q-20 123 -50 191.5t-85 68.5q-53 0 -94.5 -66.5t-59.5 -193.5q-33 -248 -33 -586z" />
<glyph unicode="&#xf4;" horiz-adv-x="899" d="M33 1655l365 402l129 4l329 -402l-155 -41l-236 285l-274 -285zM51 784q0 51 17.5 173t37.5 176q66 180 143 271t204 91q115 0 231 -106q94 -92 129 -236q35 -139 35 -377q0 -229 -72 -444q-51 -154 -144 -243t-204 -89q-121 0 -218 105.5t-136 248.5q-23 78 -23 430z M305 557q0 -152 25 -274q37 -162 114 -162q88 0 127 162q55 223 60 530q0 41 2 116q1 50 1 87v35q-1 47 -7 92q-20 123 -50 191.5t-85 68.5q-53 0 -94.5 -66.5t-59.5 -193.5q-33 -248 -33 -586z" />
<glyph unicode="&#xf5;" horiz-adv-x="899" d="M-170 1710q25 184 115.5 288.5t236.5 104.5q94 0 163.5 -30.5t149.5 -103.5t145.5 -124t120.5 -51q25 0 65 20.5t62 44.5q10 10 21.5 32t21 43.5t18.5 47t14 44t11.5 36t6.5 19.5l57 -4q-12 -143 -55 -244t-127 -158t-183 -57q-152 0 -368 160q-109 82 -152 102t-86 20 q-70 0 -114 -55q-20 -25 -64 -137zM51 784q0 51 17.5 173t37.5 176q66 180 143 271t204 91q115 0 231 -106q94 -92 129 -236q35 -139 35 -377q0 -229 -72 -444q-51 -154 -144 -243t-204 -89q-121 0 -218 105.5t-136 248.5q-23 78 -23 430zM305 557q0 -152 25 -274 q37 -162 114 -162q88 0 127 162q55 223 60 530q0 41 2 116q1 50 1 87v35q-1 47 -7 92q-20 123 -50 191.5t-85 68.5q-53 0 -94.5 -66.5t-59.5 -193.5q-33 -248 -33 -586z" />
<glyph unicode="&#xf9;" horiz-adv-x="923" d="M397 1941l96 80l230 -248l-144 -156zM51 1270v61l402 -16v-60q-86 -45 -86 -116l12 -817q0 -133 22 -187q37 -88 150 -88t156 88q32 66 32 152q0 18 -2 37l-45 872q-6 92 -22 119q-29 25 -80 43v61l282 -6v-59q-8 -4 -26.5 -11.5t-32.5 -14.5t-20 -13q-14 -25 -23 -119 l45 -860q1 -19 1 -38q0 -153 -77 -241q-80 -90 -260 -90q-182 0 -254.5 85t-74.5 259l-13 889q0 41 -43 64z" />
<glyph unicode="&#xfb;" horiz-adv-x="923" d="M166 1655l365 402l129 4l329 -402l-155 -41l-236 285l-274 -285zM51 1270v61l402 -16v-60q-86 -45 -86 -116l12 -817q0 -133 22 -187q37 -88 150 -88t156 88q32 66 32 152q0 18 -2 37l-45 872q-6 92 -22 119q-29 25 -80 43v61l282 -6v-59q-8 -4 -26.5 -11.5t-32.5 -14.5 t-20 -13q-14 -25 -23 -119l45 -860q1 -19 1 -38q0 -153 -77 -241q-80 -90 -260 -90q-182 0 -254.5 85t-74.5 259l-13 889q0 41 -43 64z" />
<glyph unicode="&#x152;" horiz-adv-x="1751" d="M964 29v82q74 12 78 92l23 1083q0 41 -15.5 64.5t-62.5 29.5v60l708 22l4 -340h-61q-16 84 -43 115l-55 66q-63 78 -170 77q-33 0 -49.5 -10t-20.5 -26.5t-6 -57.5l-23 -493q74 10 117 65q8 10 49 39q29 20 33 64h61l-22 -429h-61l-3.5 24.5t-8.5 23t-9 17.5t-15.5 24.5 t-19.5 27.5q-49 70 -121 78v-532q0 -84 70 -84q102 0 172 92q12 14 64 80q29 47 51 127h57l-6 -359zM51 760q0 172 49 325q78 229 144 306q92 102 213 102q119 0 213 -102q68 -76 143 -304q49 -156 49 -327q0 -197 -76 -430q-82 -252 -241 -326q-63 -27 -113 -27 q-129 0 -229 117q-74 84 -121 236q-31 100 -31 430zM279 322q0 -63 14 -123q29 -131 115 -131q76 0 112 131q57 223 58 532q0 231 -11 322q-29 254 -135 254q-109 0 -137 -254q-8 -78 -8 -322q0 -82 -4 -242.5t-4 -166.5z" />
<glyph unicode="&#x153;" horiz-adv-x="1714" d="M950 1395v61l713 -22l-19 -322h-61q-10 72 -20 102q-4 6 -23.5 35t-30.5 41q-68 76 -161 76q-47 0 -59.5 -17.5t-14.5 -74.5l-17 -481q27 4 53.5 24.5t37 34.5t40.5 55q23 45 25 70h59l15 -430h-62q0 39 -20 67q-45 61 -74 82q-43 25 -78 31l-20 -526q-2 -39 20.5 -56.5 t67.5 -17.5q88 0 151 82q45 59 64 98q16 31 16 90h70l25 -340l-668 -22v84q43 6 61.5 26.5t16.5 63.5l-27 1094q0 86 -80 92zM51 784q0 51 17.5 173t37.5 176q66 180 143 271t204 91q115 0 231 -106q94 -92 129 -236q35 -139 35 -377q0 -229 -72 -444q-51 -154 -144 -243 t-204 -89q-121 0 -218 105.5t-136 248.5q-23 78 -23 430zM305 557q0 -152 25 -274q37 -162 114 -162q88 0 127 162q55 223 60 530q0 41 2 116q1 50 1 87v35q-1 47 -7 92q-20 123 -50 191.5t-85 68.5q-53 0 -94.5 -66.5t-59.5 -193.5q-33 -248 -33 -586z" />
<glyph unicode="&#x2c6;" horiz-adv-x="1261" d="M215 1204l365 402l129 4l329 -402l-155 -41l-236 285l-274 -285z" />
<glyph unicode="&#x2dc;" horiz-adv-x="1116" d="M-622 215q25 184 115.5 288.5t236.5 104.5q94 0 163.5 -30.5t149.5 -103.5t145.5 -124t120.5 -51q25 0 65 20.5t62 44.5q10 10 21.5 32t21 43.5t18.5 47t14 44t11.5 36t6.5 19.5l57 -4q-12 -143 -55 -244t-127 -158t-183 -57q-152 0 -368 160q-109 82 -152 102t-86 20 q-70 0 -114 -55q-20 -25 -64 -137z" />
<glyph unicode="&#x2000;" horiz-adv-x="1050" />
<glyph unicode="&#x2001;" horiz-adv-x="2103" />
<glyph unicode="&#x2002;" horiz-adv-x="1050" />
<glyph unicode="&#x2003;" horiz-adv-x="2103" />
<glyph unicode="&#x2004;" horiz-adv-x="700" />
<glyph unicode="&#x2005;" horiz-adv-x="524" />
<glyph unicode="&#x2006;" horiz-adv-x="350" />
<glyph unicode="&#x2007;" horiz-adv-x="350" />
<glyph unicode="&#x2008;" horiz-adv-x="262" />
<glyph unicode="&#x2009;" horiz-adv-x="419" />
<glyph unicode="&#x200a;" horiz-adv-x="116" />
<glyph unicode="&#x2010;" horiz-adv-x="1024" d="M111 719v143l802 -8v-143z" />
<glyph unicode="&#x2011;" horiz-adv-x="1024" d="M111 719v143l802 -8v-143z" />
<glyph unicode="&#x2012;" horiz-adv-x="1024" d="M111 719v143l802 -8v-143z" />
<glyph unicode="&#x2013;" horiz-adv-x="1024" d="M111 711v151h802v-151h-802z" />
<glyph unicode="&#x2014;" horiz-adv-x="2048" d="M111 711v151h1826v-151h-1826z" />
<glyph unicode="&#x2018;" horiz-adv-x="542" d="M94 1538l96 80l230 -248l-144 -156z" />
<glyph unicode="&#x2019;" horiz-adv-x="299" d="M82 1575l127 -10l-12 -312l-95 27z" />
<glyph unicode="&#x201c;" horiz-adv-x="419" d="M59 1550l115 31l6 -315l-104 -29zM252 1575l121 -10l-13 -332l-88 27z" />
<glyph unicode="&#x201d;" horiz-adv-x="419" d="M59 1550l115 31l6 -315l-104 -29zM252 1575l121 -10l-13 -332l-88 27z" />
<glyph unicode="&#x2026;" horiz-adv-x="1136" d="M815 66q0 55 40 98t91 43q59 0 100.5 -38t41.5 -103q0 -49 -41 -89t-101 -40q-45 0 -88 41t-43 88zM436 66q0 55 40 98t91 43q59 0 100.5 -38t41.5 -103q0 -49 -41 -89t-101 -40q-45 0 -88 41t-43 88zM57 66q0 55 40 98t91 43q59 0 100.5 -38t41.5 -103q0 -49 -41 -89 t-101 -40q-45 0 -88 41t-43 88z" />
<glyph unicode="&#x202f;" horiz-adv-x="419" />
<glyph unicode="&#x2039;" horiz-adv-x="1052" d="M90 649v82l832 393l39 -116l-682 -314l669 -360l-41 -105z" />
<glyph unicode="&#x203a;" horiz-adv-x="1052" d="M90 1008l39 116l832 -393v-82l-818 -420l-41 105l670 360z" />
<glyph unicode="&#x205f;" horiz-adv-x="524" />
<glyph unicode="&#x2122;" horiz-adv-x="1939" d="M925 1319v59l348 25l133 -428l146 530l336 -24v-88h-4q-4 0 -10.5 1t-12.5 1q-18 0 -37 -2q-18 -33 -18 -80l-25 -1139q-4 -100 82 -108v-60h-383v60q61 6 86 40q20 37 21 95l24 1233l-182 -758h-84l-231 600l77 -1151q8 -106 23 -119q31 -33 78 -41v-59h-293v61 q84 12 84 135q0 16 -11.5 193.5t-32 471.5t-30.5 468q-6 61 -35 70q-18 6 -49 14zM51 1008l37 444l735 -78l-16 -467h-55q-49 311 -134 348l-61 15l25 -1106q0 -66 16 -86q18 -35 74 -39v-80l-436 27v77q16 0 34.5 -1t24.5 -1q35 0 41 7q16 25 16 96l-24 1132 q-78 -31 -117 -100q-6 -10 -16.5 -28.5t-13.5 -24.5t-10 -19.5t-9 -19.5t-7 -16.5t-7.5 -17.5t-5.5 -17.5t-5 -21.5t-4 -23h-82z" />
<glyph unicode="&#xe000;" horiz-adv-x="1435" d="M0 1435h1435v-1435h-1435v1435z" />
<glyph unicode="&#xfb01;" horiz-adv-x="1361" d="M866 16v72q82 10 105 74l22 1057v12q0 50 -14 77q-16 30 -64 46v59l396 -33v-61q-76 -16 -86 -80l-60 -1044q0 -51 15 -68q4 -2 19 -16.5t29.5 -23.5t22.5 -11v-60h-385zM51 18v60q90 12 90 82l-10 1100q-4 29 -8 49q-12 41 -68 49v57l709 -35l-31 -368h-55 q-6 53 -27 108q-20 66 -63 129q-70 76 -133 76q-68 -8 -80 -25q-14 -18 -15 -77l-18 -459q98 4 147 67l11 13q10 10 24.5 32.5t22.5 51.5h59l-24 -416h-58q-8 72 -30 111q-51 72 -152 77l-23 -540q-2 -82 87 -117v-55z" />
<glyph unicode="&#xfb02;" horiz-adv-x="1576" d="M866 6v60q45 8 61.5 30.5t16.5 63.5l18 1122q0 86 -79 98v60l407 -31l-4 -61q-90 0 -94 -121l-60 -1055q2 -68 72 -68q102 0 162 91q55 117 70 223l57 12l33 -389zM51 18v60q90 12 90 82l-10 1100q-4 29 -8 49q-12 41 -68 49v57l709 -35l-31 -368h-55q-6 53 -27 108 q-20 66 -63 129q-70 76 -133 76q-68 -8 -80 -25q-14 -18 -15 -77l-18 -459q98 4 147 67l11 13q10 10 24.5 32.5t22.5 51.5h59l-24 -416h-58q-8 72 -30 111q-51 72 -152 77l-23 -540q-2 -82 87 -117v-55z" />
<glyph unicode="&#xfb03;" horiz-adv-x="2177" d="M1681 16v72q82 10 105 74l22 1057v12q0 50 -14 77q-16 30 -64 46v59l396 -33v-61q-76 -16 -86 -80l-60 -1044q0 -51 15 -68q4 -2 19 -16.5t29.5 -23.5t22.5 -11v-60h-385zM866 18v60q90 12 90 82l-10 1100q-4 29 -8 49q-12 41 -68 49v57l709 -35l-31 -368h-55 q-6 53 -27 108q-20 66 -63 129q-70 76 -133 76q-68 -8 -80 -25q-14 -18 -15 -77l-18 -459q98 4 147 67l11 13q10 10 24.5 32.5t22.5 51.5h59l-24 -416h-58q-8 72 -30 111q-51 72 -152 77l-23 -540q-2 -82 87 -117v-55zM51 18v60q90 12 90 82l-10 1100q-4 29 -8 49 q-12 41 -68 49v57l709 -35l-31 -368h-55q-6 53 -27 108q-20 66 -63 129q-70 76 -133 76q-68 -8 -80 -25q-14 -18 -15 -77l-18 -459q98 4 147 67l11 13q10 10 24.5 32.5t22.5 51.5h59l-24 -416h-58q-8 72 -30 111q-51 72 -152 77l-23 -540q-2 -82 87 -117v-55z" />
<glyph unicode="&#xfb04;" horiz-adv-x="2392" d="M1681 6v60q45 8 61.5 30.5t16.5 63.5l18 1122q0 86 -79 98v60l407 -31l-4 -61q-90 0 -94 -121l-60 -1055q2 -68 72 -68q102 0 162 91q55 117 70 223l57 12l33 -389zM866 18v60q90 12 90 82l-10 1100q-4 29 -8 49q-12 41 -68 49v57l709 -35l-31 -368h-55q-6 53 -27 108 q-20 66 -63 129q-70 76 -133 76q-68 -8 -80 -25q-14 -18 -15 -77l-18 -459q98 4 147 67l11 13q10 10 24.5 32.5t22.5 51.5h59l-24 -416h-58q-8 72 -30 111q-51 72 -152 77l-23 -540q-2 -82 87 -117v-55zM51 18v60q90 12 90 82l-10 1100q-4 29 -8 49q-12 41 -68 49v57 l709 -35l-31 -368h-55q-6 53 -27 108q-20 66 -63 129q-70 76 -133 76q-68 -8 -80 -25q-14 -18 -15 -77l-18 -459q98 4 147 67l11 13q10 10 24.5 32.5t22.5 51.5h59l-24 -416h-58q-8 72 -30 111q-51 72 -152 77l-23 -540q-2 -82 87 -117v-55z" />
</font>
</defs>
</svg>
